<?xml version="1.0" encoding="UTF-8"?>
<svg version="1.1" xmlns="http://www.w3.org/2000/svg" width="202" height="194">
<path d="M0 0 C1.1730368 0.00278961 2.34607361 0.00557922 3.55465698 0.00845337 C6.02404588 0.02117085 8.49339906 0.05073776 10.96240234 0.09619141 C14.73736229 0.16397586 18.50964199 0.17818963 22.28515625 0.18359375 C24.69013099 0.20259298 27.09508408 0.22462501 29.5 0.25 C30.62511993 0.25647552 31.75023987 0.26295105 32.90945435 0.2696228 C39.37120687 0.40663962 44.21701123 0.85433959 49.30078125 5.2421875 C49.95240234 6.00789062 49.95240234 6.00789062 50.6171875 6.7890625 C51.12378906 7.38203125 51.63039062 7.975 52.15234375 8.5859375 C52.90837891 9.55273438 52.90837891 9.55273438 53.6796875 10.5390625 C54.18628906 11.17328125 54.69289062 11.8075 55.21484375 12.4609375 C59.45709199 19.50377859 58.91348867 27.13908818 58.90771484 35.10888672 C58.91370666 36.45490896 58.9205137 37.80092777 58.92807007 39.14694214 C58.94566948 42.78753023 58.95042283 46.42802419 58.95170164 50.06865072 C58.95312708 52.34706814 58.95740405 54.62546192 58.96269608 56.90387344 C58.98117528 64.8635026 58.98936921 72.82306495 58.98779297 80.78271484 C58.98659167 88.18489679 59.00769697 95.58678712 59.0392803 102.9888953 C59.06548678 109.35941425 59.07615846 115.72983818 59.07488215 122.10041058 C59.07437386 125.89851538 59.07998303 129.6963607 59.10123825 133.49441147 C59.12069518 137.06835245 59.12069499 140.64178836 59.10620499 144.21574783 C59.10313907 146.14031693 59.11974046 148.0648865 59.13708496 149.98937988 C59.07581663 158.4862606 57.72475397 166.40387937 51.6171875 172.7890625 C50.9571875 172.7890625 50.2971875 172.7890625 49.6171875 172.7890625 C49.6171875 173.7790625 49.6171875 174.7690625 49.6171875 175.7890625 C45.67076647 179.90959034 41.06066011 181.17103845 35.4921875 181.3515625 C30.4271265 181.12220125 27.46673956 180.26304851 23.6171875 176.7890625 C22.34875 175.6753125 22.34875 175.6753125 21.0546875 174.5390625 C20.2503125 173.6315625 19.4459375 172.7240625 18.6171875 171.7890625 C18.14796875 171.27085937 17.67875 170.75265625 17.1953125 170.21875 C12.96175682 164.72464123 12.90627134 159.21543442 13.109375 152.4453125 C13.80618929 147.42824959 15.57768077 143.79469816 18.6171875 139.7890625 C19.2771875 139.7890625 19.9371875 139.7890625 20.6171875 139.7890625 C21.2771875 138.1390625 21.9371875 136.4890625 22.6171875 134.7890625 C23.2771875 134.7890625 23.9371875 134.7890625 24.6171875 134.7890625 C24.8234375 134.2321875 25.0296875 133.6753125 25.2421875 133.1015625 C26.6171875 130.7890625 26.6171875 130.7890625 29.6171875 128.3515625 C32.75825765 125.66856508 33.28680261 124.538329 34.6171875 120.7890625 C34.97039062 119.94988281 35.32359375 119.11070313 35.6875 118.24609375 C40.23510026 106.84340718 39.07537433 98.16563959 34.6171875 86.7890625 C31.83930932 81.69993135 28.37879942 78.1592051 23.8046875 74.6015625 C23.0828125 74.0034375 22.3609375 73.4053125 21.6171875 72.7890625 C21.6171875 72.1290625 21.6171875 71.4690625 21.6171875 70.7890625 C19.9671875 70.4590625 18.3171875 70.1290625 16.6171875 69.7890625 C16.6171875 69.1290625 16.6171875 68.4690625 16.6171875 67.7890625 C12.53830804 67.30073956 8.45496131 66.88311826 4.3671875 66.4765625 C2.65789062 66.27063477 2.65789062 66.27063477 0.9140625 66.06054688 C-7.81449434 65.24224467 -13.60441477 66.9053238 -21.3828125 70.7890625 C-22.3728125 71.1190625 -23.3628125 71.4490625 -24.3828125 71.7890625 C-25.0428125 72.4490625 -25.7028125 73.1090625 -26.3828125 73.7890625 C-28.3828125 75.7890625 -28.3828125 75.7890625 -31.3828125 76.7890625 C-31.8159375 77.5315625 -32.2490625 78.2740625 -32.6953125 79.0390625 C-34.76824418 82.41717338 -37.29370599 84.33038589 -40.3828125 86.7890625 C-41.1253125 87.5315625 -41.8678125 88.2740625 -42.6328125 89.0390625 C-44.3828125 90.7890625 -44.3828125 90.7890625 -46.3828125 91.7890625 C-47.1871875 92.6140625 -47.9915625 93.4390625 -48.8203125 94.2890625 C-52.63603624 98.01171981 -55.94513279 98.12782647 -61.03125 98.078125 C-65.93588046 97.47523023 -70.30393371 94.63766099 -73.3828125 90.7890625 C-74.41294527 89.14085006 -75.41395878 87.47402548 -76.3828125 85.7890625 C-77.0428125 84.7990625 -77.7028125 83.8090625 -78.3828125 82.7890625 C-79.02542922 76.77387116 -79.37107863 70.87962547 -76.7578125 65.3515625 C-75.5821875 64.083125 -75.5821875 64.083125 -74.3828125 62.7890625 C-73.55297852 61.79382568 -72.72314453 60.79858887 -71.86816406 59.77319336 C-67.58146684 54.76181536 -62.90003857 50.14392222 -58.2421875 45.48046875 C-57.26899172 44.50405389 -56.2958688 43.52756642 -55.32281494 42.55101013 C-53.29737638 40.51962433 -51.26992317 38.49027437 -49.24121094 36.4621582 C-46.6378881 33.85893784 -44.04156291 31.24885359 -41.44686508 28.63704014 C-39.44632633 26.62541915 -37.44129603 24.61832276 -35.43494415 22.61250114 C-34.47482972 21.65120501 -33.51634024 20.68828311 -32.55950165 19.72372627 C-31.22896885 18.38345149 -29.89151057 17.05006245 -28.55371094 15.71704102 C-27.79459412 14.95649918 -27.03547729 14.19595734 -26.25335693 13.41236877 C-24.3828125 11.7890625 -24.3828125 11.7890625 -22.3828125 11.7890625 C-22.12192841 11.2053891 -21.86104431 10.6217157 -21.59225464 10.02035522 C-16.67428193 0.94721616 -9.60679343 -0.22895304 0 0 Z " fill="#1495B7" transform="translate(131.3828125,8.2109375)"/>
<path d="M0 0 C1.20527344 -0.00515625 2.41054688 -0.0103125 3.65234375 -0.015625 C6.90373725 0.2376336 9.14216971 0.85356123 12.0625 2.25 C12.0625 2.91 12.0625 3.57 12.0625 4.25 C12.64644531 4.29382813 13.23039062 4.33765625 13.83203125 4.3828125 C17.21116235 5.69659027 18.02640222 8.00682093 19.75 11.125 C20.35199219 12.19492187 20.95398437 13.26484375 21.57421875 14.3671875 C23.97210181 19.01190587 24.62474388 23.07143799 24.0625 28.25 C22.75 31.375 22.75 31.375 21.0625 34.25 C20.65773437 35.1678125 20.25296875 36.085625 19.8359375 37.03125 C17.70962058 40.89046837 15.14010262 43.57891243 12 46.625 C11.45794922 47.17027344 10.91589844 47.71554688 10.35742188 48.27734375 C6.3300047 52.25 6.3300047 52.25 4.0625 52.25 C4.0625 53.57 4.0625 54.89 4.0625 56.25 C2.66796875 57.76953125 2.66796875 57.76953125 1.0625 59.25 C-3.52345078 67.45941806 -3.35060319 78.75459872 -1.05859375 87.66796875 C1.48354174 94.2875889 5.44009239 101.93879619 12.0625 105.25 C12.0625 105.91 12.0625 106.57 12.0625 107.25 C13.0215625 107.62125 13.0215625 107.62125 14 108 C18.06238351 109.65811572 22.05974906 111.4535584 26.0625 113.25 C26.0625 113.91 26.0625 114.57 26.0625 115.25 C29.0325 115.58 32.0025 115.91 35.0625 116.25 C35.0625 115.92 35.0625 115.59 35.0625 115.25 C37.39583333 115.25 39.72916667 115.25 42.0625 115.25 C42.0625 114.92 42.0625 114.59 42.0625 114.25 C43.91875 113.940625 43.91875 113.940625 45.8125 113.625 C52.52411654 112.15249907 60.15270422 109.15979578 65.0625 104.25 C66.0525 104.25 67.0425 104.25 68.0625 104.25 C68.31 103.63125 68.5575 103.0125 68.8125 102.375 C70.0625 100.25 70.0625 100.25 72.0625 99.3125 C74.28968445 98.40939781 74.28968445 98.40939781 74.94921875 95.94921875 C76.18598158 92.95061132 77.59328413 91.28607861 79.875 89 C80.54144531 88.31421875 81.20789063 87.6284375 81.89453125 86.921875 C87.669474 82.46840564 97.10661285 83.45375374 104.0625 84.25 C108.80909737 86.52409327 111.8310752 90.53921431 114.0625 95.25 C116.14070005 102.38166493 115.87684936 108.41728191 112.4375 115.0625 C109.78928429 119.49701216 107.23290424 122.25818826 103.0625 125.25 C102.32 125.9925 101.5775 126.735 100.8125 127.5 C99.0625 129.25 99.0625 129.25 97.0625 130.25 C96.629375 131.013125 96.19625 131.77625 95.75 132.5625 C93.85823867 135.57530507 91.8799238 137.10339139 89.0625 139.25 C85.6102645 142.52519778 82.55809484 145.99096046 79.58984375 149.69921875 C77.88925815 151.42590029 76.21961592 152.184703 74.0625 153.25 C73.0560725 154.91279327 72.05664593 156.57983484 71.0625 158.25 C69.42989286 159.62482707 67.76024938 160.95647667 66.0625 162.25 C63.33100009 164.84492491 60.84155709 167.49444201 58.5 170.4375 C56.30995887 172.96447054 55.10561585 174.09571468 52.0625 175.25 C49.73174071 176.20865509 49.73174071 176.20865509 48.0625 179.25 C45.15695515 180.21851495 43.30911101 180.37657201 40.28735352 180.37939453 C38.83553429 180.38412277 38.83553429 180.38412277 37.35438538 180.38894653 C36.31060226 180.3869223 35.26681915 180.38489807 34.19140625 180.3828125 C32.58059425 180.38424759 32.58059425 180.38424759 30.9372406 180.38571167 C28.66510967 180.38639247 26.3929768 180.38454514 24.12084961 180.38037109 C20.64237087 180.37502669 17.16402156 180.3803168 13.68554688 180.38671875 C11.47916638 180.38605785 9.27278597 180.38477644 7.06640625 180.3828125 C5.50376793 180.38584885 5.50376793 180.38584885 3.90956116 180.38894653 C2.45301369 180.38421829 2.45301369 180.38421829 0.96704102 180.37939453 C0.11449234 180.37859894 -0.73805634 180.37780334 -1.61643982 180.37698364 C-3.91357927 180.25130869 -5.78084102 180.05576797 -7.9375 179.25 C-8.5975 178.26 -9.2575 177.27 -9.9375 176.25 C-11.13632812 175.79753906 -11.13632812 175.79753906 -12.359375 175.3359375 C-15.48389198 174.01985308 -16.3960484 172.71303649 -18.1875 169.875 C-18.68765625 169.10414063 -19.1878125 168.33328125 -19.703125 167.5390625 C-21.8828703 163.49687659 -22.06492673 159.94527501 -22.07794189 155.38725281 C-22.08365204 154.18864624 -22.08936218 152.99003967 -22.09524536 151.75511169 C-22.09636322 150.4433345 -22.09748108 149.13155731 -22.09863281 147.7800293 C-22.10326312 146.38194651 -22.10828807 144.98386498 -22.11367798 143.58578491 C-22.12678321 139.79021874 -22.13324323 135.99467025 -22.13768864 132.199085 C-22.1406223 129.82639883 -22.14472766 127.45371746 -22.14919281 125.08103371 C-22.1628626 117.65344983 -22.17253188 110.22587696 -22.1763947 102.79828137 C-22.18087476 94.23155525 -22.19842237 85.66498873 -22.2273953 77.09831113 C-22.2490279 70.47142101 -22.25909982 63.84457575 -22.26043582 57.21765071 C-22.26148269 53.26199345 -22.26736531 49.30648633 -22.28525543 45.35086632 C-22.30176359 41.62849345 -22.30387845 37.90638315 -22.29511642 34.18398666 C-22.29398197 32.17312966 -22.30767797 30.16228125 -22.3218689 28.151474 C-22.27504385 18.00254794 -20.45840288 12.11866464 -13.5 4.625 C-9.04686375 0.49770299 -6.07926997 -0.02595206 0 0 Z M59.0625 109.25 C60.0625 111.25 60.0625 111.25 60.0625 111.25 Z " fill="#1BB488" transform="translate(33.9375,8.75)"/>
<path d="M0 0 C4.49462093 2.79395355 5.89563226 5.40539811 7.39979744 10.25378418 C8.57619566 15.63637268 8.42390929 21.06006982 8.40405273 26.546875 C8.40976577 27.8931942 8.41673361 29.23950857 8.42485046 30.58581543 C8.44269216 34.21807306 8.44163086 37.85008793 8.43590808 41.4823761 C8.43280377 44.5240386 8.43892227 47.5656553 8.44494683 50.60731125 C8.4589603 57.78642384 8.45745675 64.96541734 8.44604492 72.14453125 C8.43456086 79.53200107 8.44865125 86.91910797 8.4754414 94.30653 C8.49764278 100.66860878 8.50422599 107.03057401 8.49836498 113.39268875 C8.4950055 117.18404085 8.49734314 120.97516026 8.51461601 124.76647949 C8.53015481 128.33226238 8.52605389 131.89750983 8.50731087 135.46327209 C8.5019063 137.38303476 8.51608533 139.30282189 8.53100586 141.22253418 C8.45911207 149.70666436 7.09795635 157.62486381 1 164 C0.34 164 -0.32 164 -1 164 C-1 164.99 -1 165.98 -1 167 C-1.99 167.33 -2.98 167.66 -4 168 C-4.66 167.34 -5.32 166.68 -6 166 C-5.52949219 165.64808594 -5.05898437 165.29617187 -4.57421875 164.93359375 C-3.64029297 164.19302734 -3.64029297 164.19302734 -2.6875 163.4375 C-2.07261719 162.96183594 -1.45773438 162.48617187 -0.82421875 161.99609375 C5.19475529 155.41002151 4.41592023 147.57497529 4.35644531 139.15771484 C4.35723707 137.75594454 4.35933703 136.35417447 4.36264038 134.95240784 C4.36775582 131.16117949 4.35427707 127.37022454 4.33711338 123.57904005 C4.32203165 119.60556697 4.32325035 115.63209676 4.32244873 111.65859985 C4.31876148 104.98914956 4.30382026 98.31980252 4.28125 91.65039062 C4.25235412 83.09445591 4.24202329 74.53860417 4.2375679 65.98262596 C4.2335853 58.61794539 4.22108629 51.25328279 4.20722103 43.88861513 C4.20312767 41.52498064 4.20019924 39.16134679 4.19742584 36.79771042 C4.19252334 33.08274578 4.18230394 29.36783107 4.16798782 25.65289116 C4.16132563 23.64170507 4.15946396 21.63050486 4.15774536 19.61930847 C4.15203522 18.41932724 4.14632507 17.21934601 4.14044189 15.98300171 C4.13746723 14.94217123 4.13449257 13.90134075 4.13142776 12.82896996 C4.0054357 10.11700298 3.61024612 7.64120973 3 5 C2.01 4.67 1.02 4.34 0 4 C0 2.68 0 1.36 0 0 Z " fill="#337080" transform="translate(182,17)"/>
<path d="M0 0 C0 3 0 3 -1.47673035 6.33544922 C-3.77293121 12.28452169 -3.41026764 18.33798358 -3.37231445 24.6328125 C-3.37474614 26.00030799 -3.3784691 27.36780169 -3.38337708 28.73529053 C-3.39273828 32.42954703 -3.3834011 36.12353637 -3.37004495 39.81777191 C-3.35867851 43.69508371 -3.36284196 47.57238335 -3.36479187 51.44970703 C-3.36567321 57.95935396 -3.35462803 64.46889644 -3.33618164 70.97851562 C-3.31501647 78.49029077 -3.31150512 86.001913 -3.3177436 93.51371193 C-3.32345063 100.75816479 -3.31777584 108.00256413 -3.30657005 115.24700928 C-3.30194177 118.32176713 -3.30104251 121.39649207 -3.3031559 124.47125244 C-3.30504824 128.0959926 -3.29686275 131.72057851 -3.2810955 135.34528351 C-3.27487269 137.29982025 -3.27834606 139.25438043 -3.28216553 141.20892334 C-3.2443549 147.49263514 -2.87642821 152.9899296 -1 159 C-1.66 159.33 -2.32 159.66 -3 160 C-6.76943774 153.26479106 -6.42355253 146.76676306 -6.38818359 139.18945312 C-6.39225337 137.790925 -6.39759752 136.39240009 -6.40411377 134.99388123 C-6.41774506 131.21080774 -6.41250617 127.42798077 -6.40297651 123.64490318 C-6.39535812 119.67769096 -6.40243156 115.71049923 -6.40713501 111.74328613 C-6.41258623 105.08223702 -6.40541762 98.42128783 -6.39111328 91.76025391 C-6.37478794 84.06950958 -6.3800769 76.37900388 -6.3965925 68.68826532 C-6.41022546 62.07403607 -6.41211819 55.45987847 -6.40427649 48.84563971 C-6.3996099 44.90011022 -6.39894709 40.95469274 -6.40888596 37.00917053 C-6.41757978 33.29903609 -6.41149 29.58920802 -6.39420319 25.87910652 C-6.38837249 23.87545818 -6.39723324 21.8717838 -6.40658569 19.8681488 C-6.35553369 12.60979976 -6.27108285 6.75568772 -1.3125 1.0625 C-0.6628125 0.5365625 -0.6628125 0.5365625 0 0 Z " fill="#2B6C5B" transform="translate(18,17)"/>
<path d="M0 0 C0.99 1.98 0.99 1.98 2 4 C-2.75 6.875 -2.75 6.875 -5 8 C-5.66 8.99 -6.32 9.98 -7 11 C-9.90554485 11.96851495 -11.75338899 12.12657201 -14.77514648 12.12939453 C-16.22696571 12.13412277 -16.22696571 12.13412277 -17.70811462 12.13894653 C-18.75189774 12.1369223 -19.79568085 12.13489807 -20.87109375 12.1328125 C-22.48190575 12.13424759 -22.48190575 12.13424759 -24.1252594 12.13571167 C-26.39739033 12.13639247 -28.6695232 12.13454514 -30.94165039 12.13037109 C-34.42012913 12.12502669 -37.89847844 12.1303168 -41.37695312 12.13671875 C-43.58333362 12.13605785 -45.78971403 12.13477644 -47.99609375 12.1328125 C-49.55873207 12.13584885 -49.55873207 12.13584885 -51.15293884 12.13894653 C-52.60948631 12.13421829 -52.60948631 12.13421829 -54.09545898 12.12939453 C-54.94800766 12.12859894 -55.80055634 12.12780334 -56.67893982 12.12698364 C-58.97607927 12.00130869 -60.84334102 11.80576797 -63 11 C-63.66 10.01 -64.32 9.02 -65 8 C-65.66 7.67 -66.32 7.34 -67 7 C-62.25 5.875 -62.25 5.875 -60 7 C-58.46448476 7.09997786 -56.92473726 7.13832175 -55.38598633 7.14526367 C-54.42771439 7.15164352 -53.46944244 7.15802338 -52.48213196 7.16459656 C-51.44259872 7.16570938 -50.40306549 7.1668222 -49.33203125 7.16796875 C-48.26385666 7.17129715 -47.19568207 7.17462555 -46.09513855 7.17805481 C-43.82962475 7.18312589 -41.56410346 7.18546308 -39.29858398 7.18530273 C-35.8441113 7.18748008 -32.38996262 7.20560873 -28.93554688 7.22460938 C-26.73437609 7.22754514 -24.53320379 7.22952871 -22.33203125 7.23046875 C-21.30261917 7.23765427 -20.27320709 7.24483978 -19.21260071 7.25224304 C-13.79279077 7.23512375 -9.05057675 7.07578661 -4 5 C-3.67 4.01 -3.34 3.02 -3 2 C-2.01 1.34 -1.02 0.68 0 0 Z " fill="#394A46" transform="translate(89,177)"/>
<path d="M0 0 C1.77806479 1.50096379 3.09804938 2.93295465 4.4296875 4.8359375 C5.3578125 6.1353125 5.3578125 6.1353125 6.3046875 7.4609375 C8.78815511 12.70381358 9.26799682 18.11946635 8.4296875 23.8359375 C5.78863256 30.67160912 2.34844637 35.58987135 -3.5703125 39.8359375 C-4.92130353 41.15137613 -6.26236919 42.47768868 -7.5703125 43.8359375 C-8.5603125 43.3409375 -8.5603125 43.3409375 -9.5703125 42.8359375 C-8.51725864 40.15543677 -7.65416756 38.8988288 -5.3203125 37.1484375 C-2.01991195 34.37310067 -0.13665744 31.3191403 2.09765625 27.6640625 C2.53722656 27.06078125 2.97679687 26.4575 3.4296875 25.8359375 C4.0896875 25.8359375 4.7496875 25.8359375 5.4296875 25.8359375 C5.45689926 23.94018499 5.47617886 22.04431771 5.4921875 20.1484375 C5.50378906 19.09269531 5.51539063 18.03695312 5.52734375 16.94921875 C5.43834175 14.11183488 5.07908588 11.5920456 4.4296875 8.8359375 C3.7696875 8.8359375 3.1096875 8.8359375 2.4296875 8.8359375 C1.6459375 8.0315625 0.8621875 7.2271875 0.0546875 6.3984375 C-3.43179549 2.99496601 -6.13144623 2.68720996 -10.8828125 2.5859375 C-16.51347465 2.66914926 -20.70113433 4.16351493 -24.9453125 7.9609375 C-25.8115625 8.9096875 -26.6778125 9.8584375 -27.5703125 10.8359375 C-29.05520943 12.45409441 -30.55655645 14.05724508 -32.0703125 15.6484375 C-32.8025 16.43863281 -33.5346875 17.22882813 -34.2890625 18.04296875 C-36.9667103 20.14748988 -38.24934838 20.22767094 -41.5703125 19.8359375 C-40.5803125 19.5059375 -39.5903125 19.1759375 -38.5703125 18.8359375 C-38.2609375 18.1965625 -37.9515625 17.5571875 -37.6328125 16.8984375 C-36.5703125 14.8359375 -36.5703125 14.8359375 -34.5703125 13.8984375 C-32.34249694 12.99595436 -32.34249694 12.99595436 -31.69140625 10.53515625 C-30.43080207 7.50004305 -28.97413128 5.87057631 -26.6328125 3.5859375 C-25.94316406 2.90015625 -25.25351563 2.214375 -24.54296875 1.5078125 C-19.12246845 -3.08619567 -6.40886544 -2.90249529 0 0 Z " fill="#326D5A" transform="translate(140.5703125,94.1640625)"/>
<path d="M0 0 C0.33 0 0.66 0 1 0 C1.09283266 12.49172879 1.16383252 24.98337501 1.20724869 37.47537899 C1.22809021 43.27643489 1.25634544 49.07725412 1.30175781 54.87817383 C1.34533755 60.48028948 1.36916293 66.08217801 1.37950897 71.68445015 C1.38687855 73.81781144 1.40126954 75.95116082 1.42292023 78.08442497 C1.45211504 81.08121111 1.45594924 84.0770683 1.45410156 87.07397461 C1.47567322 88.38597084 1.47567322 88.38597084 1.49768066 89.72447205 C1.44851601 97.13266682 -0.75308155 104.51458526 -6 110 C-6.66 110 -7.32 110 -8 110 C-8 110.99 -8 111.98 -8 113 C-9.485 113.495 -9.485 113.495 -11 114 C-11.66 113.34 -12.32 112.68 -13 112 C-12.52949219 111.64808594 -12.05898437 111.29617187 -11.57421875 110.93359375 C-5.53744501 106.14666965 -3.22070822 101.66511616 -2 94 C-1.88995466 91.39296298 -1.82572086 88.81047604 -1.81054688 86.203125 C-1.79810692 85.04829369 -1.79810692 85.04829369 -1.78541565 83.87013245 C-1.76806242 82.20271824 -1.75288285 80.53528029 -1.73963928 78.86782837 C-1.71848992 76.21740644 -1.69147085 73.56710042 -1.66296387 70.91674805 C-1.60338538 65.27787775 -1.55127957 59.638951 -1.5 54 C-1.44046041 47.48843298 -1.37776464 40.97692145 -1.30812073 34.4654541 C-1.28188405 31.87509987 -1.26085892 29.28473906 -1.2401123 26.69433594 C-1.15436349 17.75067093 -0.85267812 8.90951457 0 0 Z " fill="#3C5B67" transform="translate(189,71)"/>
<path d="M0 0 C1.1730368 0.00278961 2.34607361 0.00557922 3.55465698 0.00845337 C6.02404588 0.02117085 8.49339906 0.05073776 10.96240234 0.09619141 C14.73736229 0.16397586 18.50964199 0.17818963 22.28515625 0.18359375 C24.69013099 0.20259298 27.09508408 0.22462501 29.5 0.25 C30.62511993 0.25647552 31.75023987 0.26295105 32.90945435 0.2696228 C39.52136584 0.40982363 44.24622966 0.97993097 49.4921875 5.3515625 C50.6171875 6.7890625 50.6171875 6.7890625 50.6171875 8.7890625 C47.68839379 8.16146385 45.25623121 7.20283591 42.6171875 5.7890625 C42.6171875 5.1290625 42.6171875 4.4690625 42.6171875 3.7890625 C24.4671875 3.7890625 6.3171875 3.7890625 -12.3828125 3.7890625 C-12.7128125 4.7790625 -13.0428125 5.7690625 -13.3828125 6.7890625 C-14.87890625 8.26171875 -14.87890625 8.26171875 -16.8203125 9.8515625 C-21.96918154 14.20614139 -26.66130314 18.98047612 -31.3828125 23.7890625 C-32.3728125 23.4590625 -33.3628125 23.1290625 -34.3828125 22.7890625 C-27.33256939 14.42277401 -27.33256939 14.42277401 -24.3828125 11.7890625 C-23.7228125 11.7890625 -23.0628125 11.7890625 -22.3828125 11.7890625 C-22.12192841 11.2053891 -21.86104431 10.6217157 -21.59225464 10.02035522 C-16.67428193 0.94721616 -9.60679343 -0.22895304 0 0 Z " fill="#305963" transform="translate(131.3828125,8.2109375)"/>
<path d="M0 0 C2.04869074 0.44429438 4.11454293 0.81294195 6.1875 1.125 C7.81751953 1.37636719 7.81751953 1.37636719 9.48046875 1.6328125 C10.72763672 1.81457031 10.72763672 1.81457031 12 2 C12 2.66 12 3.32 12 4 C10.85337891 3.90912109 10.85337891 3.90912109 9.68359375 3.81640625 C7.40433273 3.6381247 5.12428806 3.46971872 2.84375 3.30859375 C0.297235 3.10414793 -2.2456295 2.84686993 -4.78125 2.53515625 C-13.94436329 1.54122351 -19.84393459 2.81535206 -28 7 C-28.99 7.33 -29.98 7.66 -31 8 C-32.37195574 9.29355827 -33.71182656 10.62298702 -35 12 C-35.99 11.67 -36.98 11.34 -38 11 C-35.78035783 5.20851987 -30.20262516 2.82550231 -25 0 C-18.03272397 -3.09807031 -6.33417 -4.22278 0 0 Z " fill="#2B4C58" transform="translate(138,72)"/>
<path d="M0 0 C4.13824349 3.56745129 6.50489148 7.540931 7.2890625 13.01953125 C7.49085551 17.81670144 6.39435386 20.92073046 4 25 C3.59523438 25.9178125 3.19046875 26.835625 2.7734375 27.78125 C0.64712058 31.64046837 -1.92239738 34.32891243 -5.0625 37.375 C-5.87557617 38.19291016 -5.87557617 38.19291016 -6.70507812 39.02734375 C-10.7324953 43 -10.7324953 43 -13 43 C-12.43908002 39.62728887 -11.59423873 38.34278363 -8.875 36.3125 C-3.87723309 32.26472185 0.94267669 27.17196993 3 21 C3.47983895 14.0884736 3.89373354 8.00283921 0 2 C0 1.34 0 0.68 0 0 Z " fill="#285B4F" transform="translate(51,18)"/>
<path d="M0 0 C0 4.54731247 -2.6082392 7.37627906 -5.5 10.75 C-7 12 -7 12 -9 12.875 C-11.67018316 14.37697803 -12.46536266 16.39778886 -14 19 C-14.99 19.33 -15.98 19.66 -17 20 C-19.66273185 24.28995686 -20.15333333 28.52533263 -20.1875 33.5 C-20.20167969 34.4384375 -20.21585938 35.376875 -20.23046875 36.34375 C-19.99198703 39.09235286 -19.28481532 40.60303228 -18 43 C-18 43.99 -18 44.98 -18 46 C-18.66 46 -19.32 46 -20 46 C-23.79396567 39.39829846 -23.7906034 33.45299162 -23 26 C-21.375 22.5625 -21.375 22.5625 -19 20 C-18.195625 18.989375 -17.39125 17.97875 -16.5625 16.9375 C-11.37960932 10.98727225 -5.61370643 5.53874595 0 0 Z " fill="#2C5164" transform="translate(76,51)"/>
<path d="M0 0 C1.175625 0.495 2.35125 0.99 3.5625 1.5 C10.21464735 3.77068491 17.06826931 3.24658331 24 3 C24 2.34 24 1.68 24 1 C24.99 1.33 25.98 1.66 27 2 C25.81204455 5.56386636 24.35013897 6.47093034 21.09375 8.19921875 C16.72240753 9.87109413 12.33963813 9.92591857 7.9765625 8.19921875 C4.97722778 6.56034176 2.10356987 4.72226689 0 2 C0 1.34 0 0.68 0 0 Z " fill="#2B7384" transform="translate(58,97)"/>
<path d="M0 0 C0.78052734 -0.01224609 1.56105469 -0.02449219 2.36523438 -0.03710938 C4.39070035 -0.04235217 6.41572552 0.06515672 8.4375 0.1875 C9.0975 0.8475 9.7575 1.5075 10.4375 2.1875 C4.1675 2.5175 -2.1025 2.8475 -8.5625 3.1875 C-8.8925 4.1775 -9.2225 5.1675 -9.5625 6.1875 C-10.88846504 6.86870403 -12.22290547 7.53350557 -13.5625 8.1875 C-15.35485133 9.95253652 -15.35485133 9.95253652 -17 12 C-17.60457031 12.70769531 -18.20914063 13.41539063 -18.83203125 14.14453125 C-19.40308594 14.81871094 -19.97414063 15.49289063 -20.5625 16.1875 C-24.87019231 21.11057692 -24.87019231 21.11057692 -28.375 21.5 C-29.096875 21.396875 -29.81875 21.29375 -30.5625 21.1875 C-29.5725 20.8575 -28.5825 20.5275 -27.5625 20.1875 C-27.253125 19.548125 -26.94375 18.90875 -26.625 18.25 C-25.5625 16.1875 -25.5625 16.1875 -23.5625 15.25 C-21.33468444 14.34751686 -21.33468444 14.34751686 -20.68359375 11.88671875 C-19.42298957 8.85160555 -17.96631878 7.22213881 -15.625 4.9375 C-14.93535156 4.25171875 -14.24570313 3.5659375 -13.53515625 2.859375 C-9.52368496 -0.54044621 -4.98397317 0.00413608 0 0 Z " fill="#144038" transform="translate(129.5625,92.8125)"/>
<path d="M0 0 C-0.33 0.66 -0.66 1.32 -1 2 C-2.32 2 -3.64 2 -5 2 C-5.14115234 2.89332031 -5.14115234 2.89332031 -5.28515625 3.8046875 C-6.16726266 6.51367002 -7.227321 7.35507798 -9.4375 9.125 C-14.61190011 13.43543494 -19.28509799 18.19814283 -24 23 C-24.99 22.67 -25.98 22.34 -27 22 C-19.94975689 13.63371151 -19.94975689 13.63371151 -17 11 C-16.34 11 -15.68 11 -15 11 C-14.62294922 10.12601563 -14.62294922 10.12601563 -14.23828125 9.234375 C-12.84332297 6.71728941 -11.32829825 5.1656665 -9.1875 3.25 C-8.52105469 2.63640625 -7.85460937 2.0228125 -7.16796875 1.390625 C-4.57462308 -0.27285439 -3.02376458 -0.27440795 0 0 Z " fill="#244141" transform="translate(124,9)"/>
<path d="M0 0 C0.33 0 0.66 0 1 0 C1.15855469 0.76183594 1.31710938 1.52367188 1.48046875 2.30859375 C3.69692911 12.11734929 6.42119798 19.65424412 14.64453125 25.80859375 C15.09183594 26.20175781 15.53914063 26.59492187 16 27 C16 27.66 16 28.32 16 29 C16.66 29.33 17.32 29.66 18 30 C16.35 30.33 14.7 30.66 13 31 C11.99406757 29.8803014 10.9954151 28.7540588 10 27.625 C9.1646875 26.68527344 9.1646875 26.68527344 8.3125 25.7265625 C7 24 7 24 7 22 C6.34 22 5.68 22 5 22 C0.57531554 14.86341216 0.23297358 8.29385952 0 0 Z " fill="#263A3C" transform="translate(30,87)"/>
<path d="M0 0 C1.93719378 -0.05406122 3.87481921 -0.09282025 5.8125 -0.125 C6.89144531 -0.14820312 7.97039062 -0.17140625 9.08203125 -0.1953125 C12 0 12 0 15 2 C17.04869074 2.44429438 19.11454293 2.81294195 21.1875 3.125 C22.81751953 3.37636719 22.81751953 3.37636719 24.48046875 3.6328125 C25.72763672 3.81457031 25.72763672 3.81457031 27 4 C27 4.66 27 5.32 27 6 C26.22398437 5.93941406 25.44796875 5.87882812 24.6484375 5.81640625 C16.43444671 5.17928286 8.21827629 4.57909893 0 4 C0 2.68 0 1.36 0 0 Z " fill="#41454B" transform="translate(123,70)"/>
<path d="M0 0 C0.99966797 0.24943359 0.99966797 0.24943359 2.01953125 0.50390625 C6.26731057 1.2109416 10.4420505 1.00813854 14.73632812 0.87304688 C16.49114463 0.84336341 18.24699476 0.91494294 20 1 C20.66 1.66 21.32 2.32 22 3 C16.49296603 6.80945285 11.51605773 6.83539202 5 6 C2.48535677 4.92627988 1.06688055 3.83722716 -1 2 C-0.67 1.34 -0.34 0.68 0 0 Z " fill="#333E42" transform="translate(156,183)"/>
<path d="M0 0 C1.20527344 -0.00515625 2.41054688 -0.0103125 3.65234375 -0.015625 C6.90373725 0.2376336 9.14216971 0.85356123 12.0625 2.25 C12.0625 2.91 12.0625 3.57 12.0625 4.25 C13.3825 4.58 14.7025 4.91 16.0625 5.25 C16.3925 6.57 16.7225 7.89 17.0625 9.25 C13.40933329 8.00023244 12.28184164 7.57901247 10.0625 4.25 C8.13505817 3.8029379 8.13505817 3.8029379 5.921875 3.88671875 C5.09816406 3.88736328 4.27445313 3.88800781 3.42578125 3.88867188 C2.13220703 3.9128418 2.13220703 3.9128418 0.8125 3.9375 C-0.03441406 3.93427734 -0.88132812 3.93105469 -1.75390625 3.92773438 C-6.53432183 3.9686244 -10.45039556 4.40970063 -14.9375 6.25 C-10.13555839 1.10506256 -7.07672814 -0.03021015 0 0 Z " fill="#252727" transform="translate(33.9375,8.75)"/>
<path d="M0 0 C0.66 0 1.32 0 2 0 C2 5.94 2 11.88 2 18 C2.66 18 3.32 18 4 18 C4 19.32 4 20.64 4 22 C4.61875 22.2475 5.2375 22.495 5.875 22.75 C8.35068687 24.20628639 8.95125002 25.37812506 10 28 C9.01 28.33 8.02 28.66 7 29 C6.03760548 27.75312408 5.08025991 26.50235031 4.125 25.25 C3.32449219 24.20585937 3.32449219 24.20585937 2.5078125 23.140625 C-0.767544 18.49063701 -1.2906168 15.04099701 -1.1875 9.375 C-1.18685547 8.694375 -1.18621094 8.01375 -1.18554688 7.3125 C-1.14080577 2.28161154 -1.14080577 2.28161154 0 0 Z " fill="#204E59" transform="translate(146,155)"/>
<path d="M0 0 C0.99 0.33 1.98 0.66 3 1 C-0.37211251 5.0638279 -3.84973784 8.99547459 -7.5 12.8125 C-8.2115625 13.56144531 -8.923125 14.31039062 -9.65625 15.08203125 C-12.32569028 17.26652321 -14.69326237 18.1020497 -18 19 C-12.44964797 12.21623641 -6.23557973 6.14477032 0 0 Z " fill="#2E4F42" transform="translate(95,32)"/>
<path d="M0 0 C0.66 0 1.32 0 2 0 C6 4.47058824 6 4.47058824 6 7 C6.66 7 7.32 7 8 7 C8 7.99 8 8.98 8 10 C8.66 10.33 9.32 10.66 10 11 C13.65079064 15.5269804 13.6855066 20.41503101 14 26 C12 25 12 25 11.25390625 22.890625 C11.02574219 22.01921875 10.79757813 21.1478125 10.5625 20.25 C8.66563637 13.61569585 6.01745389 9.76658119 1 5 C0 4 -1 3 -2 2 C-1.34 2 -0.68 2 0 2 C0 1.34 0 0.68 0 0 Z " fill="#304E5A" transform="translate(157,80)"/>
<path d="M0 0 C0.66 0 1.32 0 2 0 C2.54649733 11.41572199 1.75391392 21.63765049 -5.79296875 30.671875 C-6.39044922 31.32929688 -6.39044922 31.32929688 -7 32 C-8.32 31.67 -9.64 31.34 -11 31 C-10.2575 30.360625 -9.515 29.72125 -8.75 29.0625 C-5.28922666 25.61153055 -3.74422309 21.49318298 -2 17 C-1.5875 16.05125 -1.175 15.1025 -0.75 14.125 C0.37603172 9.43320117 0.15377697 4.80125867 0 0 Z " fill="#225462" transform="translate(170,107)"/>
<path d="M0 0 C4.875 3.75 4.875 3.75 6 6 C6.08698228 8.91699274 6.11551923 11.80982548 6.09765625 14.7265625 C6.0962413 15.58937836 6.09482635 16.45219421 6.09336853 17.34115601 C6.08776188 20.1024723 6.07520827 22.86370812 6.0625 25.625 C6.05748586 27.4947905 6.0529228 29.36458226 6.04882812 31.234375 C6.03779029 35.82294777 6.0205212 40.41146023 6 45 C5.67 45 5.34 45 5 45 C4.97494385 43.96593018 4.9498877 42.93186035 4.92407227 41.86645508 C4.8296657 38.01786613 4.72952709 34.16944371 4.62768555 30.32104492 C4.58446216 28.65767319 4.54277854 26.99426068 4.50268555 25.33081055 C4.44467668 22.93525932 4.38107171 20.53991092 4.31640625 18.14453125 C4.29969376 17.4047554 4.28298126 16.66497955 4.26576233 15.90278625 C4.1592724 12.16354068 3.87812248 8.64061456 3 5 C2.01 4.67 1.02 4.34 0 4 C0 2.68 0 1.36 0 0 Z " fill="#257990" transform="translate(182,17)"/>
<path d="M0 0 C0.99 0 1.98 0 3 0 C2.00193407 6.56935936 0.33288618 10.90885874 -4 16 C-4.66 16 -5.32 16 -6 16 C-6 16.99 -6 17.98 -6 19 C-6.99 19.33 -7.98 19.66 -9 20 C-9.66 19.34 -10.32 18.68 -11 18 C-10.52949219 17.64808594 -10.05898437 17.29617187 -9.57421875 16.93359375 C-3.5541635 12.15992675 -1.16779506 7.70744738 0 0 Z " fill="#29596C" transform="translate(187,165)"/>
<path d="M0 0 C0 4.54731247 -2.6082392 7.37627906 -5.5 10.75 C-7 12 -7 12 -9 12.875 C-11.68363472 14.38454453 -12.58905723 16.31920874 -14 19 C-15.32 18.67 -16.64 18.34 -18 18 C-12.06 12.06 -6.12 6.12 0 0 Z " fill="#3B4543" transform="translate(76,51)"/>
<path d="M0 0 C0 3 0 3 -1.45703125 6.21875 C-3.97059804 12.67334127 -3.57600779 19.66929719 -3.6875 26.5 C-3.72072842 27.90888486 -3.75522305 29.31774045 -3.79101562 30.7265625 C-3.87310738 34.15096131 -3.94238811 37.57511644 -4 41 C-4.33 41 -4.66 41 -5 41 C-5.21848893 36.71402011 -5.41503963 32.42773926 -5.59204102 28.13989258 C-5.65514874 26.68389558 -5.72406014 25.22813732 -5.79907227 23.77270508 C-5.90638123 21.67045771 -5.99221172 19.56821241 -6.07421875 17.46484375 C-6.13182373 16.202771 -6.18942871 14.94069824 -6.2487793 13.64038086 C-5.9135099 8.73439268 -4.60525577 4.84307144 -1.3125 1.0625 C-0.6628125 0.5365625 -0.6628125 0.5365625 0 0 Z " fill="#2C8D75" transform="translate(18,17)"/>
<path d="M0 0 C0.99 0.33 1.98 0.66 3 1 C1.81373182 4.55880453 0.34755806 5.45068551 -2.87890625 7.21484375 C-6.53856683 8.56952474 -10.15945395 8.31351396 -14 8 C-14.33 7.01 -14.66 6.02 -15 5 C-8.565 4.505 -8.565 4.505 -2 4 C-2 3.34 -2 2.68 -2 2 C-1.34 2 -0.68 2 0 2 C0 1.34 0 0.68 0 0 Z " fill="#353F36" transform="translate(82,98)"/>
<path d="M0 0 C0.78052734 -0.01224609 1.56105469 -0.02449219 2.36523438 -0.03710938 C4.39070035 -0.04235217 6.41572552 0.06515672 8.4375 0.1875 C9.0975 0.8475 9.7575 1.5075 10.4375 2.1875 C8.71853516 2.24357422 8.71853516 2.24357422 6.96484375 2.30078125 C5.43486554 2.36648584 3.90491903 2.43293159 2.375 2.5 C1.62283203 2.52255859 0.87066406 2.54511719 0.09570312 2.56835938 C-6.20756562 2.86851503 -11.16938436 4.03983212 -16 8.375 C-16.515625 8.973125 -17.03125 9.57125 -17.5625 10.1875 C-18.2225 9.8575 -18.8825 9.5275 -19.5625 9.1875 C-18.29798068 7.86891572 -17.02564525 6.55782369 -15.75 5.25 C-15.04230469 4.51910156 -14.33460937 3.78820312 -13.60546875 3.03515625 C-9.61838464 -0.57075347 -5.07948107 0.00421534 0 0 Z " fill="#302A2E" transform="translate(129.5625,92.8125)"/>
<path d="M0 0 C0.6875 1.8125 0.6875 1.8125 1 4 C0 5 -1 6 -2 7 C-4.70237511 12.75120857 -5.50209013 18.72633566 -6 25 C-6.33 25 -6.66 25 -7 25 C-7.42958555 16.63103714 -7.41017893 8.09221472 -1.8125 1.375 C-1.214375 0.92125 -0.61625 0.4675 0 0 Z " fill="#2C5347" transform="translate(37,61)"/>
<path d="M0 0 C0.33 0.66 0.66 1.32 1 2 C1.66 2 2.32 2 3 2 C3 2.66 3 3.32 3 4 C-6.22551253 8.77676538 -6.22551253 8.77676538 -12 7 C-8.35140239 3.95950199 -4.2555467 2.03481238 0 0 Z M-2 2 C-1 4 -1 4 -1 4 Z " fill="#384A51" transform="translate(95,116)"/>
<path d="M0 0 C14.85 0 29.7 0 45 0 C45 0.33 45 0.66 45 1 C30.15 1 15.3 1 0 1 C0 0.67 0 0.34 0 0 Z " fill="#000000" transform="translate(124,8)"/>
<path d="M0 0 C-0.33 1.32 -0.66 2.64 -1 4 C-4.30524893 4.88987471 -7.62334408 5.44870924 -11 6 C-12.66804677 6.32635698 -14.33524314 6.65725594 -16 7 C-12.37751128 2.22490123 -5.93572239 0 0 0 Z " fill="#1D4752" transform="translate(123,70)"/>
<path d="M0 0 C1.31194336 0.02030273 1.31194336 0.02030273 2.65039062 0.04101562 C4.78803086 0.07605891 6.92534984 0.12985459 9.0625 0.1875 C9.3925 1.1775 9.7225 2.1675 10.0625 3.1875 C9.34449219 3.02765625 8.62648438 2.8678125 7.88671875 2.703125 C-0.53325242 1.16586885 -7.96119941 2.28073536 -15.9375 5.1875 C-16.2675 4.5275 -16.5975 3.8675 -16.9375 3.1875 C-11.1154712 0.1777402 -6.49296548 -0.19256704 0 0 Z " fill="#2E896F" transform="translate(34.9375,11.8125)"/>
<path d="M0 0 C0.80078125 1.671875 0.80078125 1.671875 1 4 C-1.01953125 6.578125 -1.01953125 6.578125 -3.8125 9.25 C-4.72644531 10.14203125 -5.64039063 11.0340625 -6.58203125 11.953125 C-9 14 -9 14 -11 14 C-10.44110902 10.49560249 -9.40261653 9.15646178 -6.625 7 C-3.98759781 4.86624956 -1.8738636 2.86590904 0 0 Z " fill="#3B535F" transform="translate(49,47)"/>
<path d="M0 0 C0.66 0.33 1.32 0.66 2 1 C0.1342867 2.94722505 -1.74167719 4.88242804 -3.625 6.8125 C-4.40810547 7.63331055 -4.40810547 7.63331055 -5.20703125 8.47070312 C-8.53327778 11.85854682 -11.56647033 14.10276883 -16 16 C-14.15016345 11.68371471 -11.60821586 8.94843499 -7.5625 6.5625 C-4.57485635 4.74076607 -2.39677879 2.53373757 0 0 Z " fill="#20819A" transform="translate(90,41)"/>
<path d="M0 0 C2.07196631 0.73178866 4.1108552 1.55899003 6.125 2.4375 C7.22070312 2.91058594 8.31640625 3.38367188 9.4453125 3.87109375 C10.28835937 4.24363281 11.13140625 4.61617188 12 5 C9 7 9 7 5.5625 6.9375 C1.39127154 5.8398083 0.2845722 4.56393264 -2 1 C-1.34 0.67 -0.68 0.34 0 0 Z " fill="#283F32" transform="translate(48,117)"/>
<path d="M0 0 C0.33 0 0.66 0 1 0 C1.1974877 3.08277856 1.38123332 6.1662285 1.5625 9.25 C1.61857422 10.12269531 1.67464844 10.99539062 1.73242188 11.89453125 C1.78076172 12.73886719 1.82910156 13.58320312 1.87890625 14.453125 C1.94960327 15.61569824 1.94960327 15.61569824 2.02172852 16.80175781 C1.99969234 19.03112585 1.6303897 20.86898567 1 23 C-0.76329032 18.44889889 -1.24491558 14.68238499 -1.1875 9.8125 C-1.17783203 7.99685547 -1.17783203 7.99685547 -1.16796875 6.14453125 C-1 3 -1 3 0 0 Z " fill="#2E9177" transform="translate(29,75)"/>
<path d="M0 0 C1.32 0.66 2.64 1.32 4 2 C2.63875 3.11375 2.63875 3.11375 1.25 4.25 C-1.3069423 6.37674584 -3.69110193 8.60229816 -6 11 C-6.66 10.67 -7.32 10.34 -8 10 C-6.50104329 6.18447383 -4.2013144 4.46254954 -1 2 C-0.67 1.34 -0.34 0.68 0 0 Z " fill="#245950" transform="translate(139,127)"/>
<path d="M0 0 C5.39286575 0.43142926 8.80486318 1.52110606 13 5 C13 5.99 13 6.98 13 8 C10.07120629 7.37240135 7.63904371 6.41377341 5 5 C5 4.01 5 3.02 5 2 C3.35 1.67 1.7 1.34 0 1 C0 0.67 0 0.34 0 0 Z " fill="#2F3E35" transform="translate(169,9)"/>
<path d="M0 0 C0.75 1.6875 0.75 1.6875 1 4 C-1.13381449 7.2769294 -2.25018012 8.75006004 -6 10 C-7.20882096 12.00016466 -7.20882096 12.00016466 -8 14 C-8.66 13.67 -9.32 13.34 -10 13 C-8.625 10.5 -8.625 10.5 -7 8 C-6.34 8 -5.68 8 -5 8 C-4.34 6.35 -3.68 4.7 -3 3 C-2.34 3 -1.68 3 -1 3 C-0.67 2.01 -0.34 1.02 0 0 Z " fill="#1E3537" transform="translate(157,140)"/>
<path d="M0 0 C0.33 0 0.66 0 1 0 C1.20496094 0.84304687 1.40992187 1.68609375 1.62109375 2.5546875 C1.89050781 3.65039062 2.15992188 4.74609375 2.4375 5.875 C2.70433594 6.96554688 2.97117188 8.05609375 3.24609375 9.1796875 C3.8786478 11.92484721 3.8786478 11.92484721 5 14 C5.039992 15.99960012 5.04346799 18.00047242 5 20 C0.96891526 15.96891526 0.68690041 12.36420742 0.375 6.75 C0.30023437 5.48671875 0.22546875 4.2234375 0.1484375 2.921875 C0.09945313 1.95765625 0.05046875 0.9934375 0 0 Z " fill="#2C4F43" transform="translate(30,87)"/>
<path d="M0 0 C0.99 0.33 1.98 0.66 3 1 C2.09827532 2.17825358 1.17798498 3.34231577 0.25 4.5 C-0.51570313 5.47453125 -0.51570313 5.47453125 -1.296875 6.46875 C-3 8 -3 8 -7 8 C-6.02133662 6.85373678 -5.04205413 5.70800212 -4.0625 4.5625 C-3.51722656 3.92441406 -2.97195312 3.28632813 -2.41015625 2.62890625 C-1.63204305 1.73008851 -0.84063472 0.84063472 0 0 Z " fill="#236050" transform="translate(104,23)"/>
<path d="M0 0 C0.66 0 1.32 0 2 0 C4.03993514 4.92984325 5.40652968 8.57960425 5 14 C3 13 3 13 2.1484375 10.8203125 C1.89320313 9.93085937 1.63796875 9.04140625 1.375 8.125 C1.11460937 7.24070312 0.85421875 6.35640625 0.5859375 5.4453125 C0 3 0 3 0 0 Z " fill="#296275" transform="translate(166,92)"/>
<path d="M0 0 C0.598125 0.226875 1.19625 0.45375 1.8125 0.6875 C-0.57707269 3.93049151 -2.3922869 6.19652342 -6.1875 7.6875 C-5.82037028 4.97074005 -5.46005401 3.07686287 -3.875 0.8125 C-2.1875 -0.3125 -2.1875 -0.3125 0 0 Z " fill="#52556F" transform="translate(99.1875,169.3125)"/>
<path d="M0 0 C0.66 0 1.32 0 2 0 C1.67 4.95 1.34 9.9 1 15 C-1 13 -1 13 -1.23046875 10.46875 C-1.21628906 9.4890625 -1.20210937 8.509375 -1.1875 7.5 C-1.18105469 6.5203125 -1.17460937 5.540625 -1.16796875 4.53125 C-1 2 -1 2 0 0 Z " fill="#2C5D6B" transform="translate(146,155)"/>
<path d="M0 0 C0.66 1.32 1.32 2.64 2 4 C-1.51187196 6.40814077 -3.72656908 7.36629408 -8 7 C-7.360625 6.731875 -6.72125 6.46375 -6.0625 6.1875 C-3.66868314 5.11332248 -3.66868314 5.11332248 -3 2 C-2.01 1.34 -1.02 0.68 0 0 Z " fill="#20675A" transform="translate(89,177)"/>
<path d="M0 0 C0.66 0.66 1.32 1.32 2 2 C-1.625 6.875 -1.625 6.875 -5 8 C-5.33 7.34 -5.66 6.68 -6 6 C-2.25 1.125 -2.25 1.125 0 0 Z " fill="#484067" transform="translate(114,153)"/>
<path d="M0 0 C2.21399303 3.79541663 3.00980198 7.75629421 4 12 C3.01 12.495 3.01 12.495 2 13 C-0.44038726 8.11922548 -1.46845421 5.47332932 0 0 Z " fill="#297464" transform="translate(13,164)"/>
<path d="M0 0 C0.99 0.33 1.98 0.66 3 1 C1.12050295 4.57104439 -0.17053157 6.54744301 -4 8 C-3.50168276 4.31245243 -2.89932357 2.39509338 0 0 Z " fill="#513A44" transform="translate(97,84)"/>
<path d="M0 0 C0 2.95274099 -0.43891831 4.49058403 -1.5 7.1875 C-1.7784375 7.90292969 -2.056875 8.61835938 -2.34375 9.35546875 C-2.5603125 9.89816406 -2.776875 10.44085938 -3 11 C-3.99 10.67 -4.98 10.34 -6 10 C-3 2.42857143 -3 2.42857143 0 0 Z " fill="#295D52" transform="translate(18,17)"/>
<path d="M0 0 C-2.44568622 2.92746298 -2.44568622 2.92746298 -4.90112305 3.2487793 C-5.59761963 3.19117432 -6.29411621 3.13356934 -7.01171875 3.07421875 C-7.76904297 3.01943359 -8.52636719 2.96464844 -9.30664062 2.90820312 C-10.09232422 2.83537109 -10.87800781 2.76253906 -11.6875 2.6875 C-12.48478516 2.62626953 -13.28207031 2.56503906 -14.10351562 2.50195312 C-16.07016953 2.34886031 -18.03528989 2.17629291 -20 2 C-20 1.67 -20 1.34 -20 1 C-17.60429729 0.8312461 -15.20846637 0.66493164 -12.8125 0.5 C-12.13896484 0.45230469 -11.46542969 0.40460938 -10.77148438 0.35546875 C-7.17363248 0.10976179 -3.60627694 -0.05601984 0 0 Z " fill="#3A665C" transform="translate(83,184)"/>
<path d="M0 0 C0.66 0.66 1.32 1.32 2 2 C-1.625 6.875 -1.625 6.875 -5 8 C-5 6.68 -5 5.36 -5 4 C-4.0409375 3.8453125 -4.0409375 3.8453125 -3.0625 3.6875 C-2.381875 3.460625 -1.70125 3.23375 -1 3 C-0.67 2.01 -0.34 1.02 0 0 Z " fill="#5D4878" transform="translate(122,145)"/>
<path d="M0 0 C2.31 0.33 4.62 0.66 7 1 C7 1.66 7 2.32 7 3 C7.66 3.33 8.32 3.66 9 4 C7.35 4.33 5.7 4.66 4 5 C2.68 3.35 1.36 1.7 0 0 Z " fill="#2A4D45" transform="translate(39,113)"/>
<path d="M0 0 C2.125 0.375 2.125 0.375 4 1 C1.6875 3.5 1.6875 3.5 -1 6 C-1.99 6 -2.98 6 -4 6 C-2.84826645 3.53199953 -1.95216435 1.95216435 0 0 Z " fill="#403F61" transform="translate(89,92)"/>
<path d="M0 0 C0.66 0 1.32 0 2 0 C1.47731534 2.76276177 0.89130413 5.3260876 0 8 C-1.32 7.67 -2.64 7.34 -4 7 C-2.68 4.69 -1.36 2.38 0 0 Z " fill="#2D5E59" transform="translate(144,120)"/>
<path d="M0 0 C0.556875 0.268125 1.11375 0.53625 1.6875 0.8125 C0.965625 1.204375 0.24375 1.59625 -0.5 2 C-3.539826 3.95899898 -5.83377727 6.19213597 -8.3125 8.8125 C-7.82204356 4.398392 -4.79279276 -0.38860482 0 0 Z " fill="#297560" transform="translate(119.3125,97.1875)"/>
<path d="M0 0 C0.99 0.33 1.98 0.66 3 1 C2.06725891 2.12894876 1.12859878 3.25300876 0.1875 4.375 C-0.33457031 5.00148438 -0.85664062 5.62796875 -1.39453125 6.2734375 C-3 8 -3 8 -6 10 C-4.34832443 6.4213696 -2.21713508 3.25179812 0 0 Z " fill="#2A6667" transform="translate(95,32)"/>
<path d="M0 0 C0.99 0.33 1.98 0.66 3 1 C1.86280581 4.41158256 0.95657056 5.11854601 -2 7 C-2.66 7 -3.32 7 -4 7 C-4 6.01 -4 5.02 -4 4 C-3.34 4 -2.68 4 -2 4 C-2 3.34 -2 2.68 -2 2 C-1.34 2 -0.68 2 0 2 C0 1.34 0 0.68 0 0 Z " fill="#464758" transform="translate(82,98)"/>
<path d="M0 0 C2.4375 0.8125 2.4375 0.8125 5 2 C5.33 2.99 5.66 3.98 6 5 C6.66 5 7.32 5 8 5 C7.67 5.99 7.34 6.98 7 8 C5.82512964 7.24172908 4.66027408 6.46792245 3.5 5.6875 C2.52546875 5.04361328 2.52546875 5.04361328 1.53125 4.38671875 C1.0259375 3.92910156 0.520625 3.47148438 0 3 C0 2.01 0 1.02 0 0 Z " fill="#26452E" transform="translate(58,97)"/>
<path d="M0 0 C0 3.39593478 -0.52165948 4.06619881 -2.5 6.6875 C-2.9640625 7.31011719 -3.428125 7.93273437 -3.90625 8.57421875 C-4.2671875 9.04472656 -4.628125 9.51523437 -5 10 C-5.99 9.67 -6.98 9.34 -8 9 C-7.34 8.01 -6.68 7.02 -6 6 C-5.34 6 -4.68 6 -4 6 C-3.71125 5.38125 -3.4225 4.7625 -3.125 4.125 C-2 2 -2 2 0 0 Z " fill="#1B3A3B" transform="translate(113,14)"/>
<path d="M0 0 C0.99 0.33 1.98 0.66 3 1 C1.515 3.475 1.515 3.475 0 6 C-1.32 5.34 -2.64 4.68 -4 4 C-2.68 2.68 -1.36 1.36 0 0 Z " fill="#425764" transform="translate(105,161)"/>
<path d="M0 0 C0.66 0.66 1.32 1.32 2 2 C0.35 3.65 -1.3 5.3 -3 7 C-3.66 6.67 -4.32 6.34 -5 6 C-4.34 4.68 -3.68 3.36 -3 2 C-2.01 2 -1.02 2 0 2 C0 1.34 0 0.68 0 0 Z " fill="#4D4B6B" transform="translate(129,138)"/>
<path d="M0 0 C3.36720387 1.39332574 4.9859524 2.9789286 7 6 C5.68 6 4.36 6 3 6 C0 2.78571429 0 2.78571429 0 0 Z " fill="#1B3932" transform="translate(16,177)"/>
<path d="M0 0 C2.62187494 1.04874998 3.79371361 1.64931313 5.25 4.125 C5.4975 4.74375 5.745 5.3625 6 6 C5.01 6.33 4.02 6.66 3 7 C0 3.375 0 3.375 0 0 Z " fill="#1E5367" transform="translate(150,177)"/>
<path d="M0 0 C3.28220895 1.64110448 3.74570789 4.69322988 5 8 C5 8.99 5 9.98 5 11 C4.34 11 3.68 11 3 11 C0.84694043 7.14243493 -0.39253254 4.44870215 0 0 Z " fill="#224853" transform="translate(53,86)"/>
<path d="M0 0 C-7.5 5 -7.5 5 -11 5 C-11 4.01 -11 3.02 -11 2 C-9.73392393 1.46770674 -8.46189588 0.94955456 -7.1875 0.4375 C-6.47980469 0.14746094 -5.77210937 -0.14257812 -5.04296875 -0.44140625 C-3 -1 -3 -1 0 0 Z " fill="#2A2424" transform="translate(118,75)"/>
<path d="M0 0 C4.21878192 -0.19622241 7.17010894 0.19769832 11 2 C11 2.33 11 2.66 11 3 C3.49230769 3.36923077 3.49230769 3.36923077 1 1.5 C0.67 1.005 0.34 0.51 0 0 Z " fill="#297489" transform="translate(135,70)"/>
<path d="M0 0 C0.33 1.32 0.66 2.64 1 4 C-1.97 6.475 -1.97 6.475 -5 9 C-4.42647107 5.12867972 -2.51295648 2.91827204 0 0 Z " fill="#55416A" transform="translate(49,47)"/>
<path d="M0 0 C1.32 0 2.64 0 4 0 C3.67 1.32 3.34 2.64 3 4 C2.34 4 1.68 4 1 4 C0.67 4.99 0.34 5.98 0 7 C-0.66 6.67 -1.32 6.34 -2 6 C-1.34 4.02 -0.68 2.04 0 0 Z " fill="#397C82" transform="translate(158,139)"/>
<path d="M0 0 C4.8 3.44615385 4.8 3.44615385 5.8125 6.25 C5.874375 6.8275 5.93625 7.405 6 8 C5.01 7.67 4.02 7.34 3 7 C3 6.34 3 5.68 3 5 C2.01 4.67 1.02 4.34 0 4 C0 2.68 0 1.36 0 0 Z " fill="#235562" transform="translate(182,17)"/>
<path d="M0 0 C0.66 0.33 1.32 0.66 2 1 C0.515 3.475 0.515 3.475 -1 6 C-2.32 5.67 -3.64 5.34 -5 5 C-3.35 3.35 -1.7 1.7 0 0 Z " fill="#142C32" transform="translate(63,64)"/>
<path d="M0 0 C0.66 0.33 1.32 0.66 2 1 C-0.75 6.875 -0.75 6.875 -3 8 C-3.36923077 3.44615385 -3.36923077 3.44615385 -1.5 1.1875 C-1.005 0.795625 -0.51 0.40375 0 0 Z " fill="#215045" transform="translate(53,42)"/>
<path d="M0 0 C1.32 0.66 2.64 1.32 4 2 C1.03 4.475 1.03 4.475 -2 7 C-2.33 6.01 -2.66 5.02 -3 4 C-1.5625 1.8125 -1.5625 1.8125 0 0 Z " fill="#133C32" transform="translate(139,127)"/>
<path d="M0 0 C2 1.8125 2 1.8125 4 4 C4 4.99 4 5.98 4 7 C3.34 7 2.68 7 2 7 C0.61767557 5.37373596 -0.71937515 3.7074998 -2 2 C-1.34 2 -0.68 2 0 2 C0 1.34 0 0.68 0 0 Z " fill="#225642" transform="translate(141,96)"/>
<path d="M0 0 C0.99 0 1.98 0 3 0 C1.95125002 2.62187494 1.35068687 3.79371361 -1.125 5.25 C-1.74375 5.4975 -2.3625 5.745 -3 6 C-1.125 1.125 -1.125 1.125 0 0 Z " fill="#207F97" transform="translate(66,63)"/>
<path d="M0 0 C0 0.66 0 1.32 0 2 C-2.8125 3.5625 -2.8125 3.5625 -6 5 C-6.99 4.67 -7.98 4.34 -9 4 C-6.10130984 1.70103884 -3.84906588 0 0 0 Z " fill="#315B52" transform="translate(27,12)"/>
<path d="M0 0 C0.66 0.33 1.32 0.66 2 1 C0.68 3.64 -0.64 6.28 -2 9 C-3 5 -3 5 -1.5625 2.25 C-1.046875 1.5075 -0.53125 0.765 0 0 Z " fill="#247C93" transform="translate(151,149)"/>
<path d="M0 0 C0 0.99 0 1.98 0 3 C-4.625 5.125 -4.625 5.125 -8 4 C-2.25 0 -2.25 0 0 0 Z " fill="#2A6B7C" transform="translate(115,72)"/>
<path d="M0 0 C0.33 1.32 0.66 2.64 1 4 C-1.375 5.5625 -1.375 5.5625 -4 7 C-4.66 6.67 -5.32 6.34 -6 6 C-4.02 4.02 -2.04 2.04 0 0 Z " fill="#133226" transform="translate(83,44)"/>
<path d="M0 0 C3.96 0 7.92 0 12 0 C12 0.33 12 0.66 12 1 C8.04 1 4.08 1 0 1 C0 0.67 0 0.34 0 0 Z " fill="#46313C" transform="translate(123,92)"/>
<path d="M0 0 C2.64 0 5.28 0 8 0 C8 0.33 8 0.66 8 1 C5.36 1 2.72 1 0 1 C0 0.67 0 0.34 0 0 Z " fill="#1A3A2A" transform="translate(60,123)"/>
<path d="M0 0 C1.98 0 3.96 0 6 0 C6 0.33 6 0.66 6 1 C4.02 1 2.04 1 0 1 C0 0.67 0 0.34 0 0 Z " fill="#000000" transform="translate(32,8)"/>
<path d="M0 0 C2 1 2 1 2 1 Z " fill="#000000" transform="translate(84,184)"/>
<path d="M0 0 C2 1 2 1 2 1 Z " fill="#000000" transform="translate(100,84)"/>
<path d="M0 0 C2 1 2 1 2 1 Z " fill="#808000" transform="translate(146,76)"/>
<path d="" fill="#808080" transform="translate(0,0)"/>
<path d="" fill="#800080" transform="translate(0,0)"/>
<path d="" fill="#800080" transform="translate(0,0)"/>
<path d="" fill="#000000" transform="translate(0,0)"/>
<path d="" fill="#800000" transform="translate(0,0)"/>
<path d="" fill="#000000" transform="translate(0,0)"/>
<path d="" fill="#000000" transform="translate(0,0)"/>
<path d="" fill="#000000" transform="translate(0,0)"/>
<path d="" fill="#000000" transform="translate(0,0)"/>
<path d="" fill="#000000" transform="translate(0,0)"/>
</svg>
