<svg version="1.1" id="Layer_1" xmlns="http://www.w3.org/2000/svg" xmlns:xlink="http://www.w3.org/1999/xlink" x="0px" y="0px"
	 width="100%" viewBox="0 0 202 194" enable-background="new 0 0 202 194" xml:space="preserve">
<path fill="#010101" opacity="1.000000" stroke="none" 
	d="
M1.000000,74.000000 
	C1.000000,49.333340 1.000000,25.166677 1.000000,1.000013 
	C68.333313,1.000009 135.666626,1.000009 202.999954,1.000004 
	C202.999969,65.666634 202.999969,130.333267 202.999985,194.999908 
	C135.666718,194.999939 68.333443,194.999939 1.000080,194.999969 
	C1.000000,154.833328 1.000000,114.666664 1.000000,74.000000 
M157.620941,144.303268 
	C157.455124,144.591782 157.289322,144.880295 156.749481,145.432343 
	C156.521133,145.644028 156.352798,145.895828 155.796112,146.331680 
	C155.496323,146.548538 155.417740,146.827469 155.449203,147.311478 
	C155.449203,147.311478 155.339523,147.455597 154.797958,147.345551 
	C154.501968,147.546875 154.205978,147.748199 153.331833,148.243744 
	C152.894913,149.176315 152.457993,150.108871 152.015320,151.021164 
	C152.015320,151.021164 152.035202,151.023483 151.542633,151.178482 
	C151.390350,151.472504 151.238052,151.766510 151.003555,152.005112 
	C151.003555,152.005112 151.087402,152.064331 150.449127,152.326843 
	C150.075363,153.335892 149.701599,154.344955 149.208176,155.654831 
	C149.208176,155.654831 149.124100,155.967484 148.380936,156.210846 
	C144.640030,161.836121 144.970352,170.634781 149.178940,175.400116 
	C149.178940,175.400116 149.307602,175.726013 149.313889,176.279892 
	C149.568100,176.533371 149.822296,176.786850 150.195984,177.396103 
	C150.195984,177.396103 150.320007,177.750305 150.253662,178.297028 
	C150.512695,178.530609 150.771744,178.764206 151.031967,178.973694 
	C151.031967,178.973694 151.008148,178.969803 151.084534,179.651474 
	C152.415436,180.723465 153.746338,181.795456 155.078674,182.917984 
	C155.078674,182.917984 155.124466,182.896545 155.376648,183.335220 
	C155.692093,183.423462 156.007553,183.511703 156.653244,183.768753 
	C156.653244,183.768753 156.998428,183.904465 157.251938,184.362320 
	C157.572006,184.462555 157.892059,184.562790 158.577652,184.808807 
	C158.577652,184.808807 158.956528,184.915222 159.201813,185.608047 
	C166.432373,190.431610 172.378510,190.166611 177.300659,184.682327 
	C177.300659,184.682327 177.630692,184.513046 178.359955,184.606384 
	C179.204483,184.004486 180.049011,183.402573 181.422043,182.530396 
	C182.234894,181.681091 183.047745,180.831772 184.481705,179.765610 
	C184.930984,178.907028 185.380249,178.048447 186.066376,176.487274 
	C188.847519,171.500839 191.235153,166.721741 190.065384,160.410141 
	C189.158417,155.516586 190.320999,150.239487 190.572418,144.170120 
	C190.620682,129.349365 190.668945,114.528595 190.269302,99.038353 
	C190.113708,97.402847 189.782364,95.762009 189.831741,94.132713 
	C190.102463,85.201363 190.756775,76.271828 190.725525,67.343597 
	C190.685959,56.036831 189.725052,44.726349 189.886276,33.427814 
	C190.038086,22.789984 179.927383,11.658994 167.434570,11.749936 
	C154.459702,11.844387 141.476135,11.507801 128.512299,11.893861 
	C124.556755,12.011656 120.276352,13.223930 116.832474,15.158965 
	C113.358925,17.110674 110.639229,20.483908 107.764488,23.406691 
	C98.704315,32.618248 89.681458,41.867531 80.729942,51.184624 
	C72.652077,59.592373 64.526382,67.964233 56.738300,76.636185 
	C52.680176,81.154869 53.209373,89.164040 57.079632,94.515907 
	C57.423557,95.063019 57.767483,95.610138 58.192703,96.349937 
	C58.192703,96.349937 58.270317,96.544128 58.317547,97.123535 
	C58.596981,97.368706 58.876415,97.613869 59.037281,97.994072 
	C59.037281,97.994072 59.164200,97.859589 59.309383,98.336761 
	C59.511017,98.642479 59.794899,98.791573 60.031551,98.970810 
	C60.031551,98.970810 60.173458,98.792809 60.452915,99.319763 
	C60.990841,99.524948 61.528763,99.730125 62.003326,99.977829 
	C62.003326,99.977829 62.045677,99.914200 62.160248,100.634552 
	C67.952240,107.847221 82.670120,106.225174 88.366264,97.616806 
	C88.566307,97.473610 88.722443,97.292557 89.371132,96.864685 
	C89.558876,96.545853 89.746620,96.227020 89.958595,95.976913 
	C89.958595,95.976913 89.899544,95.934196 90.619324,95.870659 
	C91.400208,94.834007 92.181099,93.797363 93.311630,92.574623 
	C93.522850,92.400322 93.663498,92.180801 94.465820,91.873802 
	C96.189308,89.745819 97.912796,87.617836 99.986977,85.062874 
	C100.538399,84.577599 101.089821,84.092316 102.204887,83.709755 
	C102.448524,83.449471 102.692154,83.189186 102.997726,82.982605 
	C102.997726,82.982605 102.937897,82.920128 103.672577,82.929909 
	C106.116982,80.894844 108.561378,78.859779 111.328857,76.713654 
	C111.328857,76.713654 111.647911,76.591515 112.233856,76.633369 
	C112.511925,76.374184 112.790001,76.114998 113.334488,75.772606 
	C113.334488,75.772606 113.591545,75.663849 114.404228,75.756058 
	C124.871796,72.227005 135.447662,72.862862 146.008606,74.985451 
	C146.008606,74.985451 146.035995,74.916534 146.399841,75.461533 
	C147.040207,75.534615 147.680557,75.607697 148.610916,75.790817 
	C148.610916,75.790817 148.908096,75.879723 149.146240,76.557938 
	C152.100113,78.385284 155.053986,80.212624 158.017502,81.985504 
	C158.017502,81.985504 157.964386,82.000916 158.141449,82.495445 
	C158.436935,82.663033 158.732422,82.830620 159.031494,82.961540 
	C159.031494,82.961540 158.995239,82.967972 159.065201,83.657349 
	C160.774353,85.415466 162.483505,87.173592 164.411499,89.301285 
	C164.585480,89.530960 164.785889,89.734634 165.061096,90.531319 
	C165.411346,90.991989 165.761612,91.452660 166.003052,91.998787 
	C166.003052,91.998787 166.109512,91.914162 166.233490,92.404205 
	C166.497543,92.601952 166.761581,92.799690 167.031998,92.971931 
	C167.031998,92.971931 167.006439,92.965652 167.008026,93.742111 
	C168.328476,97.515678 169.648941,101.289246 171.047638,105.908623 
	C171.442810,108.289940 171.981308,110.657761 172.207016,113.055038 
	C172.965271,121.108566 168.771637,127.809723 165.595200,135.159027 
	C165.437256,135.468628 165.279297,135.778229 165.022202,136.036774 
	C165.022202,136.036774 165.112701,136.104019 164.622818,136.334808 
	C164.533783,136.671478 164.444748,137.008148 164.227097,137.651932 
	C164.227097,137.651932 164.093353,137.956802 163.423721,138.090240 
	C162.983109,138.787643 162.542496,139.485046 161.731491,140.411697 
	C161.488083,140.580536 161.294830,140.794647 160.648621,141.212296 
	C160.480927,141.505692 160.313232,141.799072 160.113541,142.112167 
	C160.113541,142.112167 160.101364,142.147705 159.633362,142.287079 
	C159.332977,142.481110 159.182693,142.756927 159.141968,143.139725 
	C159.141968,143.139725 159.118988,143.181580 158.649414,143.307434 
	C158.348083,143.493805 158.189102,143.763962 158.134506,144.132080 
	C158.134506,144.132080 158.115967,144.168152 157.620941,144.303268 
M145.870239,103.099037 
	C145.870239,103.099037 145.773056,103.174927 145.658218,102.690994 
	C145.480484,102.378586 145.213470,102.198799 144.977661,102.005302 
	C144.977661,102.005302 144.850372,102.151741 144.822037,101.434700 
	C142.848618,99.985847 140.875183,98.536995 138.951263,97.037682 
	C138.951263,97.037682 138.949951,97.108360 138.497665,96.476936 
	C132.086319,94.162514 125.825417,93.811554 119.215477,98.052994 
	C117.846878,99.436295 116.478271,100.819595 114.767349,102.476700 
	C114.545204,102.668373 114.345070,102.880783 113.657974,103.278496 
	C113.472923,103.572556 113.287880,103.866615 112.754639,104.436920 
	C112.530518,104.635666 112.346001,104.866119 111.740273,105.369980 
	C111.601181,105.678223 111.462090,105.986473 111.195648,106.675148 
	C111.195648,106.675148 111.185051,107.076195 110.543427,107.306252 
	C108.929604,108.940559 107.301338,110.560890 105.704529,112.211647 
	C99.754547,118.362701 92.521324,123.101227 84.592567,125.427666 
	C64.215103,131.406754 43.404236,122.743637 34.265846,101.870926 
	C26.039608,83.081612 34.879265,64.412422 47.532116,52.815804 
	C51.429787,49.243507 55.624374,44.931923 57.238400,40.136116 
	C61.596600,27.186470 49.719681,10.277374 33.514351,11.874125 
	C23.052052,12.905002 13.324952,20.943453 13.474521,33.808842 
	C13.668007,50.451645 13.507833,67.098534 13.503949,83.743660 
	C13.497578,111.042625 13.431519,138.341797 13.523818,165.640427 
	C13.556440,175.289017 18.538277,182.189911 27.036514,185.648331 
	C27.402300,189.820892 31.724367,186.471146 33.978207,188.957657 
	C48.632679,188.917557 63.287148,188.877457 78.546082,188.846680 
	C80.461502,187.322144 82.376923,185.797607 84.319618,184.228790 
	C84.319618,184.228790 84.272964,184.205841 84.657654,183.967148 
	C84.809151,183.704742 84.921989,183.426636 85.484589,182.995865 
	C85.646027,182.945526 85.807457,182.895172 86.706047,182.961746 
	C87.410133,182.636505 88.280029,182.476395 88.793251,181.961060 
	C95.642845,175.083405 102.382149,168.095245 109.269363,161.255890 
	C118.666031,151.924530 128.271606,142.801208 137.562576,133.367065 
	C140.692856,130.188553 143.136780,126.334084 146.265015,122.652069 
	C146.481644,122.494583 146.655930,122.299294 147.513306,121.770409 
	C151.148117,115.937103 150.894028,110.470573 146.633850,104.710022 
	C146.633850,104.710022 146.545059,104.406532 146.575455,103.865654 
	C146.316437,103.643486 146.057419,103.421326 145.870239,103.099037 
z"/>
<path fill="#1693B3" opacity="1.000000" stroke="none" 
	d="
M101.641243,83.607033 
	C101.089821,84.092316 100.538399,84.577599 99.478691,85.380432 
	C97.224792,87.770691 95.479187,89.843376 93.733574,91.916069 
	C93.663498,92.180801 93.522850,92.400322 92.783371,92.695633 
	C91.469917,93.855827 90.684731,94.895012 89.899544,95.934196 
	C89.899544,95.934196 89.958595,95.976913 89.685631,96.051094 
	C89.220001,96.441391 89.027336,96.757515 88.834671,97.073639 
	C88.722443,97.292557 88.566307,97.473610 87.821884,97.715332 
	C81.029205,101.479790 74.718834,104.758888 67.160553,101.663475 
	C65.495979,100.981773 63.752708,100.492233 62.045677,99.914200 
	C62.045677,99.914200 62.003326,99.977829 61.886505,99.699432 
	C61.237606,99.211624 60.705532,99.002220 60.173458,98.792809 
	C60.173458,98.792809 60.031551,98.970810 60.029800,98.634178 
	C59.740101,98.151558 59.452152,98.005577 59.164200,97.859589 
	C59.164200,97.859589 59.037281,97.994072 59.056992,97.648018 
	C58.807911,97.049347 58.539116,96.796738 58.270317,96.544128 
	C58.270317,96.544128 58.192703,96.349937 58.121262,95.931961 
	C57.754936,94.955109 57.460056,94.396233 57.165176,93.837349 
	C53.209373,89.164040 52.680176,81.154869 56.738300,76.636185 
	C64.526382,67.964233 72.652077,59.592373 80.729942,51.184624 
	C89.681458,41.867531 98.704315,32.618248 107.764488,23.406691 
	C110.639229,20.483908 113.358925,17.110674 116.832474,15.158965 
	C120.276352,13.223930 124.556755,12.011656 128.512299,11.893861 
	C141.476135,11.507801 154.459702,11.844387 167.434570,11.749936 
	C179.927383,11.658994 190.038086,22.789984 189.886276,33.427814 
	C189.725052,44.726349 190.685959,56.036831 190.725525,67.343597 
	C190.756775,76.271828 190.102463,85.201363 189.831741,94.132713 
	C189.782364,95.762009 190.113708,97.402847 190.233521,99.732422 
	C190.037354,113.885094 189.849899,127.343506 189.756012,140.802567 
	C189.745972,142.244049 190.281296,143.689346 190.563644,145.132874 
	C190.320999,150.239487 189.158417,155.516586 190.065384,160.410141 
	C191.235153,166.721741 188.847519,171.500839 185.675537,176.963181 
	C184.809982,178.286880 184.335281,179.134659 183.860580,179.982452 
	C183.047745,180.831772 182.234894,181.681091 180.830444,182.653564 
	C179.369446,183.355499 178.500076,183.934280 177.630692,184.513046 
	C177.630692,184.513046 177.300659,184.682327 176.698761,184.735687 
	C170.383423,184.831116 164.669983,184.873169 158.956528,184.915222 
	C158.956528,184.915222 158.577652,184.808807 158.246124,184.533478 
	C157.653381,184.025726 157.347992,183.907837 156.998428,183.904465 
	C156.998428,183.904465 156.653244,183.768753 156.352356,183.471283 
	C155.789749,182.922867 155.480759,182.830460 155.124466,182.896545 
	C155.124466,182.896545 155.078674,182.917984 154.986176,182.580383 
	C153.598495,181.151779 152.303329,180.060791 151.008148,178.969803 
	C151.008148,178.969803 151.031967,178.973694 150.985107,178.742432 
	C150.817673,178.188110 150.611588,177.934494 150.320007,177.750305 
	C150.320007,177.750305 150.195984,177.396103 150.084869,176.959290 
	C149.751694,176.257004 149.529648,175.991501 149.307602,175.726013 
	C149.307602,175.726013 149.178940,175.400116 149.133774,174.796204 
	C149.100433,168.117371 149.112274,162.042419 149.124100,155.967484 
	C149.124100,155.967484 149.208176,155.654831 149.536285,155.311615 
	C150.272079,154.000381 150.679733,153.032364 151.087402,152.064331 
	C151.087402,152.064331 151.003555,152.005112 151.270020,151.930634 
	C151.814087,151.645309 151.980331,151.367752 152.035202,151.023483 
	C152.035202,151.023483 152.015320,151.021164 152.338898,150.953171 
	C153.580124,149.972839 154.497757,149.060501 155.455261,147.968567 
	C155.495117,147.788986 155.339523,147.455597 155.339523,147.455597 
	C155.339523,147.455597 155.449203,147.311478 155.719574,147.167816 
	C156.247864,146.798111 156.332687,146.519318 156.244461,146.187744 
	C156.352798,145.895828 156.521133,145.644028 157.184402,145.229675 
	C157.784882,144.740723 157.950424,144.454437 158.115967,144.168152 
	C158.115967,144.168152 158.134506,144.132080 158.389435,144.063278 
	C158.947922,143.808365 159.106140,143.537399 159.118988,143.181580 
	C159.118988,143.181580 159.141968,143.139725 159.397125,143.058685 
	C159.953125,142.782761 160.102814,142.506104 160.101364,142.147705 
	C160.101364,142.147705 160.113541,142.112167 160.375626,142.019943 
	C160.809052,141.636490 160.980377,141.345261 161.151718,141.054031 
	C161.294830,140.794647 161.488083,140.580536 162.232483,140.217865 
	C163.186768,139.334961 163.640060,138.645889 164.093353,137.956802 
	C164.093353,137.956802 164.227097,137.651932 164.508240,137.354095 
	C164.897156,136.738831 165.004929,136.421432 165.112701,136.104019 
	C165.112701,136.104019 165.022202,136.036774 165.311615,135.945007 
	C165.759689,135.541122 165.918335,135.229019 166.076981,134.916901 
	C168.771637,127.809723 172.965271,121.108566 172.207016,113.055038 
	C171.981308,110.657761 171.442810,108.289940 171.123505,105.157379 
	C169.801743,100.592644 168.404083,96.779144 167.006439,92.965652 
	C167.006439,92.965652 167.031998,92.971931 166.969055,92.736397 
	C166.640564,92.305298 166.375031,92.109734 166.109512,91.914162 
	C166.109512,91.914162 166.003052,91.998787 166.037842,91.655807 
	C165.719345,90.845985 165.366043,90.379143 165.012726,89.912292 
	C164.785889,89.734634 164.585480,89.530960 164.269592,88.757889 
	C162.416870,86.465645 160.706055,84.716812 158.995239,82.967972 
	C158.995239,82.967972 159.031494,82.961540 158.917465,82.751778 
	C158.523758,82.361649 158.244064,82.181282 157.964386,82.000916 
	C157.964386,82.000916 158.017502,81.985504 157.880066,81.701263 
	C154.797806,79.571251 151.852951,77.725487 148.908096,75.879715 
	C148.908096,75.879723 148.610916,75.790817 148.235718,75.511749 
	C147.252350,75.127296 146.644165,75.021912 146.035995,74.916534 
	C146.035995,74.916534 146.008606,74.985451 145.874069,74.649567 
	C136.942566,69.134384 120.740349,69.814850 113.591545,75.663849 
	C113.591545,75.663849 113.334488,75.772606 112.921692,75.843498 
	C112.221901,76.140099 111.934906,76.365807 111.647911,76.591515 
	C111.647911,76.591515 111.328857,76.713654 110.795029,76.778732 
	C107.820099,78.869255 105.378998,80.894691 102.937897,82.920128 
	C102.937897,82.920128 102.997726,82.982605 102.709747,82.971725 
	C102.161598,83.176231 101.901421,83.391632 101.641243,83.607033 
z"/>
<path fill="#19B789" opacity="1.000000" stroke="none" 
	d="
M146.787872,122.066208 
	C146.655930,122.299294 146.481644,122.494583 145.811417,122.631546 
	C141.570480,125.754395 137.665924,128.768936 134.028961,132.077606 
	C130.439529,135.343018 127.120773,138.906006 123.683273,142.338455 
	C123.601906,142.233215 123.520538,142.127975 123.439171,142.022736 
	C121.959450,144.015152 120.479721,146.007584 118.973785,147.674667 
	C118.498238,146.495239 118.048912,145.641144 117.599586,144.787033 
	C117.163628,145.156662 116.727676,145.526291 116.291718,145.895920 
	C117.194481,146.597275 118.097244,147.298630 118.808975,148.271637 
	C109.074997,158.028656 99.532043,167.514023 89.620361,177.054657 
	C82.394722,179.744995 75.558647,182.713577 68.096115,179.274124 
	C62.932808,176.894379 57.964214,177.751114 52.604683,179.085159 
	C45.394779,180.879776 37.934521,180.441971 31.619854,175.888687 
	C22.484896,169.301788 20.354334,161.287460 23.018370,149.427567 
	C24.155924,144.363312 23.858871,138.983170 24.300213,133.753891 
	C24.588833,130.334122 24.237404,126.556732 25.610960,123.609940 
	C27.281427,120.026154 27.929739,117.436005 25.214294,114.131302 
	C24.153191,112.839943 24.276045,110.363792 24.305979,108.434196 
	C24.359976,104.953476 24.749983,101.477966 25.320059,98.105576 
	C27.423801,99.140366 29.207138,100.069870 30.994015,101.247772 
	C30.997553,101.496178 31.002914,101.992989 31.024166,102.396103 
	C31.783287,105.691032 32.862236,108.544159 33.195454,111.481865 
	C34.219387,120.509003 40.128162,122.949295 48.302776,123.151764 
	C49.260681,124.389702 50.597408,125.558327 50.470921,126.538033 
	C49.917656,130.823380 52.724686,132.024673 55.804379,132.064468 
	C60.206203,132.121292 64.704544,131.789719 69.002014,130.874405 
	C73.410706,129.935425 77.431419,129.520401 81.408737,132.164215 
	C82.542900,132.918121 84.597481,133.703415 85.467491,133.187790 
	C88.819405,131.201157 92.073029,128.927353 94.968285,126.321693 
	C98.746300,122.921562 102.328125,119.259109 105.649719,115.411972 
	C107.812172,112.907372 109.361206,109.873146 111.185043,107.076195 
	C111.185051,107.076195 111.195648,106.675148 111.490997,106.363358 
	C111.924591,105.743805 112.062828,105.436035 112.201073,105.128273 
	C112.346001,104.866119 112.530518,104.635666 113.182053,104.213135 
	C113.795288,103.697533 113.981110,103.405724 114.166931,103.113922 
	C114.345070,102.880783 114.545204,102.668373 115.254242,102.318008 
	C116.679451,101.716469 117.617775,101.273613 118.932724,100.814667 
	C120.524467,99.841034 121.739578,98.883484 122.979462,97.936600 
	C123.004234,97.947266 122.952377,97.951065 123.411392,97.965790 
	C127.589989,97.639671 131.309570,97.298828 135.421844,96.989212 
	C136.859680,97.049744 137.904816,97.079048 138.949951,97.108360 
	C138.949951,97.108360 138.951263,97.037682 138.905060,97.348938 
	C138.923019,98.036972 138.987167,98.413750 139.275848,99.006805 
	C139.837112,99.469276 140.173843,99.715462 140.807404,100.033882 
	C142.352936,100.787987 143.601654,101.469864 144.850372,102.151741 
	C144.850372,102.151741 144.977661,102.005302 144.973053,102.322815 
	C145.236649,102.818527 145.504852,102.996727 145.773056,103.174927 
	C145.773056,103.174927 145.870239,103.099037 145.858597,103.401825 
	C146.079651,103.938583 146.312347,104.172562 146.545059,104.406532 
	C146.545059,104.406532 146.633850,104.710022 146.655334,105.293335 
	C146.713837,111.273170 146.750854,116.669693 146.787872,122.066208 
z"/>
<path fill="#1EAE85" opacity="1.000000" stroke="none" 
	d="
M110.864235,107.191223 
	C109.361206,109.873146 107.812172,112.907372 105.649719,115.411972 
	C102.328125,119.259109 98.746300,122.921562 94.968285,126.321693 
	C92.073029,128.927353 88.819405,131.201157 85.467491,133.187790 
	C84.597481,133.703415 82.542900,132.918121 81.408737,132.164215 
	C77.431419,129.520401 73.410706,129.935425 69.002014,130.874405 
	C64.704544,131.789719 60.206203,132.121292 55.804379,132.064468 
	C52.724686,132.024673 49.917656,130.823380 50.470921,126.538033 
	C50.597408,125.558327 49.260681,124.389702 48.105202,122.882835 
	C43.421185,117.681572 39.159256,112.964378 35.073147,108.099510 
	C33.509464,106.237816 32.347782,104.038467 31.002914,101.992989 
	C31.002914,101.992989 30.997553,101.496178 30.905491,100.860260 
	C30.536509,91.817558 30.259586,83.410774 30.125511,74.675140 
	C33.344810,65.094727 39.276890,57.854042 46.092453,51.090359 
	C49.222237,47.984394 52.376884,44.441837 54.111904,40.480431 
	C58.914593,29.514912 49.970211,13.105463 33.617477,14.140621 
	C21.214033,16.668537 16.065151,22.780041 16.030975,35.021820 
	C15.962132,59.680149 16.012165,84.338814 16.011227,109.466156 
	C16.010164,127.718193 15.992783,145.501434 16.020077,163.284592 
	C16.032545,171.406754 18.273376,178.372986 26.110155,182.428101 
	C26.913855,182.843964 27.395054,183.883087 27.751049,184.707245 
	C27.295404,184.839310 27.114618,184.897125 26.933832,184.954926 
	C18.538277,182.189911 13.556440,175.289017 13.523818,165.640427 
	C13.431519,138.341797 13.497578,111.042625 13.503949,83.743660 
	C13.507833,67.098534 13.668007,50.451645 13.474521,33.808842 
	C13.324952,20.943453 23.052052,12.905002 33.514351,11.874125 
	C49.719681,10.277374 61.596600,27.186470 57.238400,40.136116 
	C55.624374,44.931923 51.429787,49.243507 47.532116,52.815804 
	C34.879265,64.412422 26.039608,83.081612 34.265846,101.870926 
	C43.404236,122.743637 64.215103,131.406754 84.592567,125.427666 
	C92.521324,123.101227 99.754547,118.362701 105.704529,112.211647 
	C107.301338,110.560890 108.929604,108.940559 110.864235,107.191223 
z"/>
<path fill="#19B78A" opacity="1.000000" stroke="none" 
	d="
M28.025906,184.632996 
	C27.395054,183.883087 26.913855,182.843964 26.110155,182.428101 
	C18.273376,178.372986 16.032545,171.406754 16.020077,163.284592 
	C15.992783,145.501434 16.010164,127.718193 16.311749,109.308792 
	C17.965429,106.305458 19.119587,103.782066 20.737146,101.602592 
	C21.816454,100.148346 23.555733,99.183922 24.999653,98.000282 
	C24.749983,101.477966 24.359976,104.953476 24.305979,108.434196 
	C24.276045,110.363792 24.153191,112.839943 25.214294,114.131302 
	C27.929739,117.436005 27.281427,120.026154 25.610960,123.609940 
	C24.237404,126.556732 24.588833,130.334122 24.300213,133.753891 
	C23.858871,138.983170 24.155924,144.363312 23.018370,149.427567 
	C20.354334,161.287460 22.484896,169.301788 31.619854,175.888687 
	C37.934521,180.441971 45.394779,180.879776 52.604683,179.085159 
	C57.964214,177.751114 62.932808,176.894379 68.096115,179.274124 
	C75.558647,182.713577 82.394722,179.744995 89.436188,177.321716 
	C88.403465,179.303955 87.186172,181.074387 85.968880,182.844833 
	C85.807457,182.895172 85.646027,182.945526 85.010178,183.147552 
	C84.262947,183.547638 84.175346,183.849838 84.272964,184.205841 
	C84.272964,184.205841 84.319618,184.228790 83.900787,184.282990 
	C79.562851,184.886383 75.651131,185.836716 71.723259,185.908966 
	C60.264065,186.119736 48.797138,186.073044 37.336143,185.915787 
	C34.227451,185.873138 31.129038,185.081100 28.025906,184.632996 
z"/>
<path fill="#1EAE85" opacity="1.000000" stroke="none" 
	d="
M86.337463,182.903290 
	C87.186172,181.074387 88.403465,179.303955 89.804924,177.266449 
	C99.532043,167.514023 109.074997,158.028656 118.808975,148.271637 
	C120.479721,146.007584 121.959450,144.015152 123.439171,142.022736 
	C123.520538,142.127975 123.601906,142.233215 123.683273,142.338455 
	C127.120773,138.906006 130.439529,135.343018 134.028961,132.077606 
	C137.665924,128.768936 141.570480,125.754395 145.626114,122.699791 
	C143.136780,126.334084 140.692856,130.188553 137.562576,133.367065 
	C128.271606,142.801208 118.666031,151.924530 109.269363,161.255890 
	C102.382149,168.095245 95.642845,175.083405 88.793251,181.961060 
	C88.280029,182.476395 87.410133,182.636505 86.337463,182.903290 
z"/>
<path fill="#375D54" opacity="1.000000" stroke="none" 
	d="
M27.751049,184.707245 
	C31.129038,185.081100 34.227451,185.873138 37.336143,185.915787 
	C48.797138,186.073044 60.264065,186.119736 71.723259,185.908966 
	C75.651131,185.836716 79.562851,184.886383 83.887146,184.305145 
	C82.376923,185.797607 80.461502,187.322144 77.893539,188.626694 
	C66.120613,188.278503 55.000301,188.077042 43.879776,188.064117 
	C40.271194,188.059921 36.662033,188.549179 33.053139,188.812714 
	C31.724367,186.471146 27.402300,189.820892 26.985172,185.301636 
	C27.114618,184.897125 27.295404,184.839310 27.751049,184.707245 
z"/>
<path fill="#2E5F6C" opacity="1.000000" stroke="none" 
	d="
M113.997887,75.709953 
	C120.740349,69.814850 136.942566,69.134384 145.900177,74.623245 
	C135.447662,72.862862 124.871796,72.227005 113.997887,75.709953 
z"/>
<path fill="#33535E" opacity="1.000000" stroke="none" 
	d="
M62.102959,100.274384 
	C63.752708,100.492233 65.495979,100.981773 67.160553,101.663475 
	C74.718834,104.758888 81.029205,101.479790 87.661209,97.797836 
	C82.670120,106.225174 67.952240,107.847221 62.102959,100.274384 
z"/>
<path fill="#2B6272" opacity="1.000000" stroke="none" 
	d="
M159.079163,185.261627 
	C164.669983,184.873169 170.383423,184.831116 176.525940,184.802948 
	C172.378510,190.166611 166.432373,190.431610 159.079163,185.261627 
z"/>
<path fill="#808080" opacity="1.000000" stroke="none" 
	d="
M33.515671,188.885193 
	C36.662033,188.549179 40.271194,188.059921 43.879776,188.064117 
	C55.000301,188.077042 66.120613,188.278503 77.591309,188.622025 
	C63.287148,188.877457 48.632679,188.917557 33.515671,188.885193 
z"/>
<path fill="#777777" opacity="1.000000" stroke="none" 
	d="
M190.568024,144.651489 
	C190.281296,143.689346 189.745972,142.244049 189.756012,140.802567 
	C189.849899,127.343506 190.037354,113.885094 190.457458,100.067169 
	C190.668945,114.528595 190.620682,129.349365 190.568024,144.651489 
z"/>
<path fill="#2B6272" opacity="1.000000" stroke="none" 
	d="
M148.752518,156.089172 
	C149.112274,162.042419 149.100433,168.117371 149.088623,174.626953 
	C144.970352,170.634781 144.640030,161.836121 148.752518,156.089172 
z"/>
<path fill="#2F6251" opacity="1.000000" stroke="none" 
	d="
M147.150589,121.918304 
	C146.750854,116.669693 146.713837,111.273170 146.705536,105.443260 
	C150.894028,110.470573 151.148117,115.937103 147.150589,121.918304 
z"/>
<path fill="#2F6251" opacity="1.000000" stroke="none" 
	d="
M138.723816,96.792648 
	C137.904816,97.079048 136.859680,97.049744 135.064178,96.812653 
	C130.526672,97.053596 126.739525,97.502327 122.952377,97.951065 
	C122.952377,97.951065 123.004234,97.947266 122.654808,97.969467 
	C121.668976,98.133652 121.032570,98.275627 120.273323,98.288612 
	C120.150482,98.159615 119.904808,97.901619 119.904808,97.901619 
	C125.825417,93.811554 132.086319,94.162514 138.723816,96.792648 
z"/>
<path fill="#2E5F6C" opacity="1.000000" stroke="none" 
	d="
M167.007233,93.353882 
	C168.404083,96.779144 169.801743,100.592644 171.084381,104.734474 
	C169.648941,101.289246 168.328476,97.515678 167.007233,93.353882 
z"/>
<path fill="#2E5F6C" opacity="1.000000" stroke="none" 
	d="
M149.027161,76.218826 
	C151.852951,77.725487 154.797806,79.571251 157.875244,81.728493 
	C155.053986,80.212624 152.100113,78.385284 149.027161,76.218826 
z"/>
<path fill="#2E5F6C" opacity="1.000000" stroke="none" 
	d="
M103.305237,82.925018 
	C105.378998,80.894691 107.820099,78.869255 110.633484,76.834274 
	C108.561378,78.859779 106.116982,80.894844 103.305237,82.925018 
z"/>
<path fill="#33535E" opacity="1.000000" stroke="none" 
	d="
M94.099701,91.894936 
	C95.479187,89.843376 97.224792,87.770691 99.303345,85.593925 
	C97.912796,87.617836 96.189308,89.745819 94.099701,91.894936 
z"/>
<path fill="#2F6251" opacity="1.000000" stroke="none" 
	d="
M139.051331,98.790520 
	C138.987167,98.413750 138.923019,98.036972 138.880310,97.374176 
	C140.875183,98.536995 142.848618,99.985847 144.836212,101.793221 
	C143.601654,101.469864 142.352936,100.787987 140.603546,99.789909 
	C139.752365,99.245972 139.401855,99.018250 139.051331,98.790520 
z"/>
<path fill="#2E5F6C" opacity="1.000000" stroke="none" 
	d="
M159.030212,83.312660 
	C160.706055,84.716812 162.416870,86.465645 164.160172,88.573097 
	C162.483505,87.173592 160.774353,85.415466 159.030212,83.312660 
z"/>
<path fill="#2F6251" opacity="1.000000" stroke="none" 
	d="
M118.556099,100.830757 
	C117.617775,101.273613 116.679451,101.716469 115.425400,102.181107 
	C116.478271,100.819595 117.846878,99.436295 119.560143,97.977310 
	C119.904808,97.901619 120.150482,98.159615 120.107590,98.540100 
	C119.561829,99.557312 119.058960,100.194031 118.556099,100.830757 
z"/>
<path fill="#2B6272" opacity="1.000000" stroke="none" 
	d="
M151.046341,179.310638 
	C152.303329,180.060791 153.598495,181.151779 154.985443,182.555115 
	C153.746338,181.795456 152.415436,180.723465 151.046341,179.310638 
z"/>
<path fill="#33535E" opacity="1.000000" stroke="none" 
	d="
M90.259430,95.902428 
	C90.684731,94.895012 91.469917,93.855827 92.608551,92.788681 
	C92.181099,93.797363 91.400208,94.834007 90.259430,95.902428 
z"/>
<path fill="#2B6272" opacity="1.000000" stroke="none" 
	d="
M155.415390,148.148163 
	C154.497757,149.060501 153.580124,149.972839 152.341797,150.963303 
	C152.457993,150.108871 152.894913,149.176315 153.997253,148.146088 
	C154.913559,148.081650 155.164474,148.114899 155.415390,148.148163 
z"/>
<path fill="#2B6272" opacity="1.000000" stroke="none" 
	d="
M177.995331,184.559723 
	C178.500076,183.934280 179.369446,183.355499 180.566193,182.788696 
	C180.049011,183.402573 179.204483,184.004486 177.995331,184.559723 
z"/>
<path fill="#2B6272" opacity="1.000000" stroke="none" 
	d="
M150.768265,152.195587 
	C150.679733,153.032364 150.272079,154.000381 149.596130,155.161209 
	C149.701599,154.344955 150.075363,153.335892 150.768265,152.195587 
z"/>
<path fill="#2B6272" opacity="1.000000" stroke="none" 
	d="
M184.171143,179.874023 
	C184.335281,179.134659 184.809982,178.286880 185.557098,177.314484 
	C185.380249,178.048447 184.930984,178.907028 184.171143,179.874023 
z"/>
<path fill="#2A5966" opacity="1.000000" stroke="none" 
	d="
M163.758545,138.023529 
	C163.640060,138.645889 163.186768,139.334961 162.417664,140.103241 
	C162.542496,139.485046 162.983109,138.787643 163.758545,138.023529 
z"/>
<path fill="#2E5F6C" opacity="1.000000" stroke="none" 
	d="
M146.217926,75.189034 
	C146.644165,75.021912 147.252350,75.127296 148.090729,75.456734 
	C147.680557,75.607697 147.040207,75.534615 146.217926,75.189034 
z"/>
<path fill="#33535E" opacity="1.000000" stroke="none" 
	d="
M60.313187,99.056290 
	C60.705532,99.002220 61.237606,99.211624 61.918182,99.678169 
	C61.528763,99.730125 60.990841,99.524948 60.313187,99.056290 
z"/>
<path fill="#33535E" opacity="1.000000" stroke="none" 
	d="
M57.122406,94.176628 
	C57.460056,94.396233 57.754936,94.955109 58.080612,95.835617 
	C57.767483,95.610138 57.423557,95.063019 57.122406,94.176628 
z"/>
<path fill="#2E5F6C" opacity="1.000000" stroke="none" 
	d="
M165.036926,90.221802 
	C165.366043,90.379143 165.719345,90.845985 166.092255,91.613075 
	C165.761612,91.452660 165.411346,90.991989 165.036926,90.221802 
z"/>
<path fill="#2B6272" opacity="1.000000" stroke="none" 
	d="
M150.286835,178.023666 
	C150.611588,177.934494 150.817673,178.188110 150.984528,178.754486 
	C150.771744,178.764206 150.512695,178.530609 150.286835,178.023666 
z"/>
<path fill="#375D54" opacity="1.000000" stroke="none" 
	d="
M84.465309,184.086487 
	C84.175346,183.849838 84.262947,183.547638 84.765961,183.216034 
	C84.921989,183.426636 84.809151,183.704742 84.465309,184.086487 
z"/>
<path fill="#2B6272" opacity="1.000000" stroke="none" 
	d="
M149.310745,176.002960 
	C149.529648,175.991501 149.751694,176.257004 150.025116,176.781403 
	C149.822296,176.786850 149.568100,176.533371 149.310745,176.002960 
z"/>
<path fill="#2B6272" opacity="1.000000" stroke="none" 
	d="
M155.250549,183.115875 
	C155.480759,182.830460 155.789749,182.922867 156.187225,183.386871 
	C156.007553,183.511703 155.692093,183.423462 155.250549,183.115875 
z"/>
<path fill="#2E5F6C" opacity="1.000000" stroke="none" 
	d="
M111.940887,76.612442 
	C111.934906,76.365807 112.221901,76.140099 112.788490,75.885101 
	C112.790001,76.114998 112.511925,76.374184 111.940887,76.612442 
z"/>
<path fill="#2B6272" opacity="1.000000" stroke="none" 
	d="
M157.125183,184.133392 
	C157.347992,183.907837 157.653381,184.025726 158.063354,184.460571 
	C157.892059,184.562790 157.572006,184.462555 157.125183,184.133392 
z"/>
<path fill="#2B6272" opacity="1.000000" stroke="none" 
	d="
M151.788910,151.100983 
	C151.980331,151.367752 151.814087,151.645309 151.311127,151.958344 
	C151.238052,151.766510 151.390350,151.472504 151.788910,151.100983 
z"/>
<path fill="#2A5966" opacity="1.000000" stroke="none" 
	d="
M155.455261,147.968567 
	C155.164474,148.114899 154.913559,148.081650 154.286316,147.998962 
	C154.205978,147.748199 154.501968,147.546875 155.068741,147.400574 
	C155.339523,147.455597 155.495117,147.788986 155.455261,147.968567 
z"/>
<path fill="#2F6251" opacity="1.000000" stroke="none" 
	d="
M113.912453,103.196213 
	C113.981110,103.405724 113.795288,103.697533 113.356155,104.075012 
	C113.287880,103.866615 113.472923,103.572556 113.912453,103.196213 
z"/>
<path fill="#2E5F6C" opacity="1.000000" stroke="none" 
	d="
M158.052917,82.248184 
	C158.244064,82.181282 158.523758,82.361649 158.915680,82.770111 
	C158.732422,82.830620 158.436935,82.663033 158.052917,82.248184 
z"/>
<path fill="#2E5F6C" opacity="1.000000" stroke="none" 
	d="
M101.923065,83.658394 
	C101.901421,83.391632 102.161598,83.176231 102.678787,82.944870 
	C102.692154,83.189186 102.448524,83.449471 101.923065,83.658394 
z"/>
<path fill="#2E5F6C" opacity="1.000000" stroke="none" 
	d="
M166.171509,92.159180 
	C166.375031,92.109734 166.640564,92.305298 166.965866,92.749146 
	C166.761581,92.799690 166.497543,92.601952 166.171509,92.159180 
z"/>
<path fill="#33535E" opacity="1.000000" stroke="none" 
	d="
M89.102905,96.969162 
	C89.027336,96.757515 89.220001,96.441391 89.673515,96.016724 
	C89.746620,96.227020 89.558876,96.545853 89.102905,96.969162 
z"/>
<path fill="#33535E" opacity="1.000000" stroke="none" 
	d="
M58.293930,96.833832 
	C58.539116,96.796738 58.807911,97.049347 59.116280,97.580498 
	C58.876415,97.613869 58.596981,97.368706 58.293930,96.833832 
z"/>
<path fill="#33535E" opacity="1.000000" stroke="none" 
	d="
M59.236794,98.098175 
	C59.452152,98.005577 59.740101,98.151558 60.094540,98.540794 
	C59.794899,98.791573 59.511017,98.642479 59.236794,98.098175 
z"/>
<path fill="#2F6251" opacity="1.000000" stroke="none" 
	d="
M145.715637,102.932961 
	C145.504852,102.996727 145.236649,102.818527 144.912811,102.395966 
	C145.213470,102.198799 145.480484,102.378586 145.715637,102.932961 
z"/>
<path fill="#2A5966" opacity="1.000000" stroke="none" 
	d="
M156.020294,146.259705 
	C156.332687,146.519318 156.247864,146.798111 155.775146,147.096313 
	C155.417740,146.827469 155.496323,146.548538 156.020294,146.259705 
z"/>
<path fill="#2F6251" opacity="1.000000" stroke="none" 
	d="
M146.560257,104.136093 
	C146.312347,104.172562 146.079651,103.938583 145.822678,103.451881 
	C146.057419,103.421326 146.316437,103.643486 146.560257,104.136093 
z"/>
<path fill="#2F6251" opacity="1.000000" stroke="none" 
	d="
M111.970673,105.249130 
	C112.062828,105.436035 111.924591,105.743805 111.554672,106.173141 
	C111.462090,105.986473 111.601181,105.678223 111.970673,105.249130 
z"/>
<path fill="#2A5966" opacity="1.000000" stroke="none" 
	d="
M165.836090,135.037964 
	C165.918335,135.229019 165.759689,135.541122 165.361191,135.970535 
	C165.279297,135.778229 165.437256,135.468628 165.836090,135.037964 
z"/>
<path fill="#2A5966" opacity="1.000000" stroke="none" 
	d="
M164.867767,136.219421 
	C165.004929,136.421432 164.897156,136.738831 164.572540,137.200531 
	C164.444748,137.008148 164.533783,136.671478 164.867767,136.219421 
z"/>
<path fill="#2A5966" opacity="1.000000" stroke="none" 
	d="
M160.900177,141.133163 
	C160.980377,141.345261 160.809052,141.636490 160.391617,142.010086 
	C160.313232,141.799072 160.480927,141.505692 160.900177,141.133163 
z"/>
<path fill="#2A5966" opacity="1.000000" stroke="none" 
	d="
M159.867371,142.217392 
	C160.102814,142.506104 159.953125,142.782761 159.417419,143.046082 
	C159.182693,142.756927 159.332977,142.481110 159.867371,142.217392 
z"/>
<path fill="#2A5966" opacity="1.000000" stroke="none" 
	d="
M158.884201,143.244507 
	C159.106140,143.537399 158.947922,143.808365 158.408417,144.056183 
	C158.189102,143.763962 158.348083,143.493805 158.884201,143.244507 
z"/>
<path fill="#2A5966" opacity="1.000000" stroke="none" 
	d="
M157.868454,144.235718 
	C157.950424,144.454437 157.784882,144.740723 157.371429,145.097900 
	C157.289322,144.880295 157.455124,144.591782 157.868454,144.235718 
z"/>
<path fill="#1AB78D" opacity="1.000000" stroke="none" 
	d="
M25.320059,98.105576 
	C23.555733,99.183922 21.816454,100.148346 20.737146,101.602592 
	C19.119587,103.782066 17.965429,106.305458 16.313677,108.839966 
	C16.012165,84.338814 15.962132,59.680149 16.030975,35.021820 
	C16.065151,22.780041 21.214033,16.668537 33.635559,14.505162 
	C33.393139,17.391983 33.581348,21.203331 31.958761,22.276281 
	C26.378061,25.966570 23.894800,31.162191 21.882063,37.147060 
	C18.072655,48.474339 18.460505,59.619919 22.108110,70.843338 
	C23.425846,74.897911 25.754765,76.648804 29.982664,75.003983 
	C30.259586,83.410774 30.536509,91.817558 30.901955,100.611862 
	C29.207138,100.069870 27.423801,99.140366 25.320059,98.105576 
z"/>
<path fill="#19B78A" opacity="1.000000" stroke="none" 
	d="
M31.024166,102.396103 
	C32.347782,104.038467 33.509464,106.237816 35.073147,108.099510 
	C39.159256,112.964378 43.421185,117.681572 47.810593,122.726578 
	C40.128162,122.949295 34.219387,120.509003 33.195454,111.481865 
	C32.862236,108.544159 31.783287,105.691032 31.024166,102.396103 
z"/>
<path fill="#1EAE85" opacity="1.000000" stroke="none" 
	d="
M123.411392,97.965790 
	C126.739525,97.502327 130.526672,97.053596 134.671494,96.781418 
	C131.309570,97.298828 127.589989,97.639671 123.411392,97.965790 
z"/>
<path fill="#1EAE85" opacity="1.000000" stroke="none" 
	d="
M118.973785,147.674667 
	C118.097244,147.298630 117.194481,146.597275 116.291718,145.895920 
	C116.727676,145.526291 117.163628,145.156662 117.599586,144.787033 
	C118.048912,145.641144 118.498238,146.495239 118.973785,147.674667 
z"/>
<path fill="#1EAE85" opacity="1.000000" stroke="none" 
	d="
M118.932724,100.814667 
	C119.058960,100.194031 119.561829,99.557312 120.230431,98.669098 
	C121.032570,98.275627 121.668976,98.133652 122.630035,97.958801 
	C121.739578,98.883484 120.524467,99.841034 118.932724,100.814667 
z"/>
<path fill="#1EAE85" opacity="1.000000" stroke="none" 
	d="
M139.275848,99.006805 
	C139.401855,99.018250 139.752365,99.245972 140.306732,99.717674 
	C140.173843,99.715462 139.837112,99.469276 139.275848,99.006805 
z"/>
<path fill="#1AB789" opacity="1.000000" stroke="none" 
	d="
M30.125511,74.675140 
	C25.754765,76.648804 23.425846,74.897911 22.108110,70.843338 
	C18.460505,59.619919 18.072655,48.474339 21.882063,37.147060 
	C23.894800,31.162191 26.378061,25.966570 31.958761,22.276281 
	C33.581348,21.203331 33.393139,17.391983 34.016914,14.471368 
	C49.970211,13.105463 58.914593,29.514912 54.111904,40.480431 
	C52.376884,44.441837 49.222237,47.984394 46.092453,51.090359 
	C39.276890,57.854042 33.344810,65.094727 30.125511,74.675140 
z"/>
</svg>